<mxfile host="65bd71144e">
    <diagram id="iKpqdBi6vhiHX9eOmPMT" name="Page-1">
        <mxGraphModel dx="4130" dy="3922" grid="1" gridSize="6" guides="1" tooltips="1" connect="1" arrows="1" fold="1" page="1" pageScale="1" pageWidth="2336" pageHeight="1654" math="0" shadow="0">
            <root>
                <mxCell id="0"/>
                <mxCell id="1" parent="0"/>
                <mxCell id="111" value="" style="rounded=0;whiteSpace=wrap;html=1;" parent="1" vertex="1">
                    <mxGeometry x="744" y="162" width="1422" height="1056" as="geometry"/>
                </mxCell>
                <mxCell id="55" style="edgeStyle=none;html=1;exitX=1;exitY=0.5;exitDx=0;exitDy=0;exitPerimeter=0;fontFamily=Garamond;fontSize=22;fontColor=#000000;endArrow=classic;endFill=1;rounded=1;strokeWidth=5;" parent="1" source="2" edge="1">
                    <mxGeometry relative="1" as="geometry">
                        <mxPoint x="1689.8" y="505" as="targetPoint"/>
                    </mxGeometry>
                </mxCell>
                <mxCell id="2" value="" style="points=[[0.015,0.015,0],[0.985,0.015,0],[0.985,0.985,0],[0.015,0.985,0],[0.25,0,0],[0.5,0,0],[0.75,0,0],[1,0.25,0],[1,0.5,0],[1,0.75,0],[0.75,1,0],[0.5,1,0],[0.25,1,0],[0,0.75,0],[0,0.5,0],[0,0.25,0]];verticalLabelPosition=bottom;html=1;verticalAlign=top;aspect=fixed;align=center;pointerEvents=1;shape=mxgraph.cisco19.rect;prIcon=firewall;fillColor=#FAFAFA;strokeColor=#005073;rounded=1;" parent="1" vertex="1">
                    <mxGeometry x="1336.8" y="354" width="64" height="50" as="geometry"/>
                </mxCell>
                <mxCell id="47" value="" style="html=1;rounded=1;" parent="1" source="4" edge="1">
                    <mxGeometry relative="1" as="geometry">
                        <mxPoint x="1650.8" y="948" as="targetPoint"/>
                    </mxGeometry>
                </mxCell>
                <mxCell id="4" value="" style="points=[[0.015,0.015,0],[0.985,0.015,0],[0.985,0.985,0],[0.015,0.985,0],[0.25,0,0],[0.5,0,0],[0.75,0,0],[1,0.25,0],[1,0.5,0],[1,0.75,0],[0.75,1,0],[0.5,1,0],[0.25,1,0],[0,0.75,0],[0,0.5,0],[0,0.25,0]];verticalLabelPosition=bottom;html=1;verticalAlign=top;aspect=fixed;align=center;pointerEvents=1;shape=mxgraph.cisco19.rect;prIcon=workgroup_switch;fillColor=#FAFAFA;strokeColor=#6696AB;rounded=1;" parent="1" vertex="1">
                    <mxGeometry x="1620.8" y="822" width="60" height="60" as="geometry"/>
                </mxCell>
                <mxCell id="8" value="" style="shape=mxgraph.cisco.misc.access_point;html=1;pointerEvents=1;dashed=0;fillColor=#036897;strokeColor=#ffffff;strokeWidth=2;verticalLabelPosition=bottom;verticalAlign=top;align=center;outlineConnect=0;rounded=1;" parent="1" vertex="1">
                    <mxGeometry x="968.4000000000001" y="758.85" width="75" height="34" as="geometry"/>
                </mxCell>
                <mxCell id="11" value="" style="pointerEvents=1;shadow=0;dashed=0;html=1;strokeColor=none;fillColor=#4495D1;labelPosition=center;verticalLabelPosition=bottom;verticalAlign=top;align=center;outlineConnect=0;shape=mxgraph.veeam.laptop;rounded=1;" parent="1" vertex="1">
                    <mxGeometry x="831.8" y="748.85" width="58.4" height="44" as="geometry"/>
                </mxCell>
                <mxCell id="12" value="" style="html=1;verticalLabelPosition=bottom;align=center;labelBackgroundColor=#ffffff;verticalAlign=top;strokeWidth=2;strokeColor=#0080F0;shadow=0;dashed=0;shape=mxgraph.ios7.icons.smartphone;rounded=1;" parent="1" vertex="1">
                    <mxGeometry x="988.5999999999999" y="648" width="18" height="30" as="geometry"/>
                </mxCell>
                <mxCell id="33" style="edgeStyle=none;html=1;exitX=1;exitY=0.5;exitDx=0;exitDy=0;exitPerimeter=0;rounded=1;" parent="1" source="14" target="15" edge="1">
                    <mxGeometry relative="1" as="geometry"/>
                </mxCell>
                <mxCell id="14" value="" style="fontColor=#0066CC;verticalAlign=top;verticalLabelPosition=bottom;labelPosition=center;align=center;html=1;outlineConnect=0;fillColor=#CCCCCC;strokeColor=#6881B3;gradientColor=none;gradientDirection=north;strokeWidth=2;shape=mxgraph.networks.phone_2;rounded=1;" parent="1" vertex="1">
                    <mxGeometry x="845.6" y="909" width="40" height="36" as="geometry"/>
                </mxCell>
                <mxCell id="15" value="" style="verticalLabelPosition=bottom;aspect=fixed;html=1;verticalAlign=top;strokeColor=none;align=center;outlineConnect=0;shape=mxgraph.citrix.desktop;rounded=1;" parent="1" vertex="1">
                    <mxGeometry x="747.8" y="899" width="50.86" height="56" as="geometry"/>
                </mxCell>
                <mxCell id="16" value="" style="pointerEvents=1;shadow=0;dashed=0;html=1;strokeColor=none;fillColor=#505050;labelPosition=center;verticalLabelPosition=bottom;verticalAlign=top;outlineConnect=0;align=center;shape=mxgraph.office.servers.database_server_green;rounded=1;" parent="1" vertex="1">
                    <mxGeometry x="1674.05" y="962.7" width="23" height="30" as="geometry"/>
                </mxCell>
                <mxCell id="17" value="" style="pointerEvents=1;shadow=0;dashed=0;html=1;strokeColor=none;fillColor=#505050;labelPosition=center;verticalLabelPosition=bottom;verticalAlign=top;outlineConnect=0;align=center;shape=mxgraph.office.servers.exchange_server;rounded=1;" parent="1" vertex="1">
                    <mxGeometry x="1644.05" y="962.7" width="30" height="30" as="geometry"/>
                </mxCell>
                <mxCell id="19" value="" style="aspect=fixed;html=1;points=[];align=center;image;fontSize=12;image=img/lib/mscae/SQL_Servers.svg;rounded=1;" parent="1" vertex="1">
                    <mxGeometry x="1701.05" y="962.7" width="30" height="30" as="geometry"/>
                </mxCell>
                <mxCell id="27" value="" style="edgeStyle=none;html=1;startArrow=none;rounded=1;strokeWidth=5;" parent="1" source="72" target="2" edge="1">
                    <mxGeometry relative="1" as="geometry"/>
                </mxCell>
                <mxCell id="370" style="edgeStyle=none;html=1;exitX=-0.067;exitY=0.445;exitDx=0;exitDy=0;entryX=0.5;entryY=0;entryDx=0;entryDy=0;fontSize=45;dashed=1;strokeWidth=12;startArrow=none;exitPerimeter=0;endArrow=none;endFill=0;" parent="1" source="371" target="368" edge="1">
                    <mxGeometry relative="1" as="geometry"/>
                </mxCell>
                <mxCell id="20" value="" style="aspect=fixed;perimeter=ellipsePerimeter;html=1;align=center;shadow=0;dashed=0;spacingTop=3;image;image=img/lib/active_directory/internet_cloud.svg;rounded=1;" parent="1" vertex="1">
                    <mxGeometry x="2196" y="-60" width="240" height="151.2" as="geometry"/>
                </mxCell>
                <mxCell id="66" style="edgeStyle=none;html=1;exitX=0.015;exitY=0.015;exitDx=0;exitDy=0;exitPerimeter=0;entryX=0.92;entryY=0.8;entryDx=0;entryDy=0;entryPerimeter=0;fontFamily=Garamond;fontSize=22;fontColor=#f1e9e9;endArrow=classic;endFill=1;rounded=1;" parent="1" source="23" target="8" edge="1">
                    <mxGeometry relative="1" as="geometry"/>
                </mxCell>
                <mxCell id="67" style="edgeStyle=none;html=1;exitX=0;exitY=0.5;exitDx=0;exitDy=0;exitPerimeter=0;fontFamily=Garamond;fontSize=22;fontColor=#f1e9e9;endArrow=classic;endFill=1;rounded=1;" parent="1" source="23" edge="1">
                    <mxGeometry relative="1" as="geometry">
                        <mxPoint x="891.8" y="927.4615384615386" as="targetPoint"/>
                    </mxGeometry>
                </mxCell>
                <mxCell id="23" value="" style="points=[[0.015,0.015,0],[0.985,0.015,0],[0.985,0.985,0],[0.015,0.985,0],[0.25,0,0],[0.5,0,0],[0.75,0,0],[1,0.25,0],[1,0.5,0],[1,0.75,0],[0.75,1,0],[0.5,1,0],[0.25,1,0],[0,0.75,0],[0,0.5,0],[0,0.25,0]];verticalLabelPosition=bottom;html=1;verticalAlign=top;aspect=fixed;align=center;pointerEvents=1;shape=mxgraph.cisco19.rect;prIcon=workgroup_switch;fillColor=#FAFAFA;strokeColor=#6696AB;rounded=1;" parent="1" vertex="1">
                    <mxGeometry x="1071.8" y="897" width="60" height="60" as="geometry"/>
                </mxCell>
                <mxCell id="25" value="" style="pointerEvents=1;shadow=0;dashed=0;html=1;strokeColor=none;fillColor=#4495D1;labelPosition=center;verticalLabelPosition=bottom;verticalAlign=top;align=center;outlineConnect=0;shape=mxgraph.veeam.hyper_v_vmware_host;rounded=1;" parent="1" vertex="1">
                    <mxGeometry x="1617.3" y="1006.7" width="107" height="104" as="geometry"/>
                </mxCell>
                <mxCell id="26" value="" style="pointerEvents=1;shadow=0;dashed=0;html=1;strokeColor=none;fillColor=#505050;labelPosition=center;verticalLabelPosition=bottom;verticalAlign=top;outlineConnect=0;align=center;shape=mxgraph.office.servers.server_farm;fillColor=#DA4026;rounded=1;" parent="1" vertex="1">
                    <mxGeometry x="1614.05" y="960.7" width="15" height="32" as="geometry"/>
                </mxCell>
                <mxCell id="38" value="Internet&amp;nbsp;" style="text;html=1;align=center;verticalAlign=middle;resizable=0;points=[];autosize=1;strokeColor=none;fillColor=none;fontSize=40;fontColor=#000000;fontStyle=1;rounded=1;" parent="1" vertex="1">
                    <mxGeometry x="2226" y="-24" width="180" height="66" as="geometry"/>
                </mxCell>
                <mxCell id="360" style="edgeStyle=elbowEdgeStyle;shape=link;html=1;exitX=0.5;exitY=0;exitDx=0;exitDy=0;exitPerimeter=0;entryX=0;entryY=0.5;entryDx=0;entryDy=0;strokeWidth=5;fontSize=30;" parent="1" source="40" target="20" edge="1">
                    <mxGeometry relative="1" as="geometry">
                        <Array as="points">
                            <mxPoint x="1369" y="66"/>
                        </Array>
                    </mxGeometry>
                </mxCell>
                <mxCell id="40" value="" style="shape=mxgraph.cisco.routers.10700;html=1;pointerEvents=1;dashed=0;fillColor=#036897;strokeColor=#ffffff;strokeWidth=2;verticalLabelPosition=bottom;verticalAlign=top;align=center;outlineConnect=0;rounded=1;" parent="1" vertex="1">
                    <mxGeometry x="1329.8" y="168" width="78" height="53" as="geometry"/>
                </mxCell>
                <mxCell id="45" value="" style="html=1;verticalLabelPosition=bottom;align=center;labelBackgroundColor=#ffffff;verticalAlign=top;strokeWidth=2;strokeColor=#0080F0;shadow=0;dashed=0;shape=mxgraph.ios7.icons.wifi;pointerEvents=1;direction=north;rounded=1;" parent="1" vertex="1">
                    <mxGeometry x="907.5999999999999" y="741" width="41" height="69.7" as="geometry"/>
                </mxCell>
                <mxCell id="46" value="" style="html=1;verticalLabelPosition=bottom;align=center;labelBackgroundColor=#ffffff;verticalAlign=top;strokeWidth=2;strokeColor=#0080F0;shadow=0;dashed=0;shape=mxgraph.ios7.icons.wifi;pointerEvents=1;direction=east;rounded=1;" parent="1" vertex="1">
                    <mxGeometry x="973.6999999999998" y="699.9999999999999" width="69.7" height="41" as="geometry"/>
                </mxCell>
                <mxCell id="52" value="Access Switch" style="text;html=1;align=center;verticalAlign=middle;resizable=0;points=[];autosize=1;strokeColor=none;fillColor=none;fontStyle=1;strokeWidth=17;fontFamily=Garamond;fontSize=26;rounded=1;" parent="1" vertex="1">
                    <mxGeometry x="1674.05" y="828" width="180" height="48" as="geometry"/>
                </mxCell>
                <mxCell id="53" value="Access Switch" style="text;html=1;align=center;verticalAlign=middle;resizable=0;points=[];autosize=1;strokeColor=none;fillColor=none;fontStyle=1;strokeWidth=17;fontFamily=Garamond;fontSize=26;rounded=1;" parent="1" vertex="1">
                    <mxGeometry x="1131.8" y="903" width="180" height="48" as="geometry"/>
                </mxCell>
                <mxCell id="56" value="" style="rounded=1;whiteSpace=wrap;html=1;strokeWidth=17;fontFamily=Garamond;fontSize=22;fillColor=none;" parent="1" vertex="1">
                    <mxGeometry x="1707.8" y="437" width="216" height="173" as="geometry"/>
                </mxCell>
                <mxCell id="59" value="" style="outlineConnect=0;dashed=0;verticalLabelPosition=bottom;verticalAlign=top;align=center;html=1;shape=mxgraph.aws3.traditional_server;fillColor=#7D7C7C;gradientColor=none;strokeWidth=17;fontFamily=Garamond;fontSize=22;fontColor=#000000;rounded=1;" parent="1" vertex="1">
                    <mxGeometry x="1767.8" y="473" width="46.5" height="63" as="geometry"/>
                </mxCell>
                <mxCell id="61" value="Web Server" style="text;html=1;align=center;verticalAlign=middle;resizable=0;points=[];autosize=1;strokeColor=none;fillColor=none;fontSize=22;fontFamily=Garamond;fontColor=#f1e9e9;rounded=1;" parent="1" vertex="1">
                    <mxGeometry x="1731.05" y="550" width="120" height="36" as="geometry"/>
                </mxCell>
                <mxCell id="62" value="Publicly accessible" style="text;html=1;align=center;verticalAlign=middle;resizable=0;points=[];autosize=1;strokeColor=none;fillColor=none;fontSize=22;fontFamily=Garamond;fontColor=#f1e9e9;fontStyle=1;rounded=1;" parent="1" vertex="1">
                    <mxGeometry x="1719.05" y="382" width="204" height="36" as="geometry"/>
                </mxCell>
                <mxCell id="63" value="Server&amp;nbsp;" style="text;html=1;align=center;verticalAlign=middle;resizable=0;points=[];autosize=1;strokeColor=none;fillColor=none;fontSize=25;fontFamily=Garamond;fontColor=#f1e9e9;rounded=1;" parent="1" vertex="1">
                    <mxGeometry x="1617.3" y="1110.7" width="96" height="48" as="geometry"/>
                </mxCell>
                <mxCell id="68" value="Access Points" style="text;html=1;align=center;verticalAlign=middle;resizable=0;points=[];autosize=1;strokeColor=none;fillColor=none;fontSize=22;fontFamily=Garamond;fontColor=#f1e9e9;fontStyle=1;rounded=1;" parent="1" vertex="1">
                    <mxGeometry x="1047.8" y="748.85" width="156" height="36" as="geometry"/>
                </mxCell>
                <mxCell id="69" value="DeskPhones" style="text;html=1;align=center;verticalAlign=middle;resizable=0;points=[];autosize=1;strokeColor=none;fillColor=none;fontSize=22;fontFamily=Garamond;fontColor=#f1e9e9;fontStyle=1;rounded=1;" parent="1" vertex="1">
                    <mxGeometry x="803.8" y="951" width="144" height="36" as="geometry"/>
                </mxCell>
                <mxCell id="70" value="Desktops" style="text;html=1;align=center;verticalAlign=middle;resizable=0;points=[];autosize=1;strokeColor=none;fillColor=none;fontSize=22;fontFamily=Garamond;fontColor=#f1e9e9;fontStyle=1;rounded=1;" parent="1" vertex="1">
                    <mxGeometry x="738" y="861" width="120" height="36" as="geometry"/>
                </mxCell>
                <mxCell id="71" value="VMware" style="text;html=1;align=center;verticalAlign=middle;resizable=0;points=[];autosize=1;strokeColor=none;fillColor=none;fontSize=25;fontFamily=Garamond;fontColor=#f1e9e9;fontStyle=1;rounded=1;" parent="1" vertex="1">
                    <mxGeometry x="1711.8" y="1020" width="120" height="48" as="geometry"/>
                </mxCell>
                <mxCell id="76" value="" style="edgeStyle=none;html=1;startArrow=none;rounded=1;endArrow=none;" parent="1" source="40" target="72" edge="1">
                    <mxGeometry relative="1" as="geometry">
                        <mxPoint x="1368.8" y="377" as="sourcePoint"/>
                        <mxPoint x="1368.8" y="480" as="targetPoint"/>
                    </mxGeometry>
                </mxCell>
                <mxCell id="72" value="Router" style="text;html=1;align=center;verticalAlign=middle;resizable=0;points=[];autosize=1;strokeColor=none;fillColor=none;fontSize=25;fontFamily=Garamond;fontColor=#f1e9e9;rounded=1;" parent="1" vertex="1">
                    <mxGeometry x="1320.8" y="234" width="96" height="48" as="geometry"/>
                </mxCell>
                <mxCell id="77" value="" style="edgeStyle=none;html=1;exitX=0.5;exitY=1;exitDx=0;exitDy=0;exitPerimeter=0;entryX=0.5;entryY=0;entryDx=0;entryDy=0;entryPerimeter=0;fontFamily=Garamond;fontSize=19;fontColor=#000000;rounded=1;endArrow=none;" parent="1" source="2" target="3" edge="1">
                    <mxGeometry relative="1" as="geometry">
                        <mxPoint x="1368.8" y="530" as="sourcePoint"/>
                        <mxPoint x="1368.8" y="636" as="targetPoint"/>
                    </mxGeometry>
                </mxCell>
                <mxCell id="3" value="FIrewall" style="text;html=1;align=center;verticalAlign=middle;resizable=0;points=[];autosize=1;strokeColor=none;fillColor=none;fontSize=22;rounded=1;" parent="1" vertex="1">
                    <mxGeometry x="1314.8" y="426" width="108" height="36" as="geometry"/>
                </mxCell>
                <mxCell id="78" value="Laptops" style="text;html=1;align=center;verticalAlign=middle;resizable=0;points=[];autosize=1;strokeColor=none;fillColor=none;fontSize=22;" parent="1" vertex="1">
                    <mxGeometry x="810" y="784.85" width="102" height="42" as="geometry"/>
                </mxCell>
                <mxCell id="79" value="Mobiles" style="text;html=1;align=center;verticalAlign=middle;resizable=0;points=[];autosize=1;strokeColor=none;fillColor=none;fontSize=22;" parent="1" vertex="1">
                    <mxGeometry x="945.8" y="612" width="102" height="42" as="geometry"/>
                </mxCell>
                <mxCell id="80" value="" style="html=1;rounded=1;" parent="1" source="81" edge="1">
                    <mxGeometry relative="1" as="geometry">
                        <mxPoint x="1650.8" y="948" as="targetPoint"/>
                    </mxGeometry>
                </mxCell>
                <mxCell id="81" value="" style="points=[[0.015,0.015,0],[0.985,0.015,0],[0.985,0.985,0],[0.015,0.985,0],[0.25,0,0],[0.5,0,0],[0.75,0,0],[1,0.25,0],[1,0.5,0],[1,0.75,0],[0.75,1,0],[0.5,1,0],[0.25,1,0],[0,0.75,0],[0,0.5,0],[0,0.25,0]];verticalLabelPosition=bottom;html=1;verticalAlign=top;aspect=fixed;align=center;pointerEvents=1;shape=mxgraph.cisco19.rect;prIcon=workgroup_switch;fillColor=#FAFAFA;strokeColor=#6696AB;rounded=1;" parent="1" vertex="1">
                    <mxGeometry x="1620.8" y="822" width="60" height="60" as="geometry"/>
                </mxCell>
                <mxCell id="82" value="" style="shape=mxgraph.cisco.misc.access_point;html=1;pointerEvents=1;dashed=0;fillColor=#036897;strokeColor=#ffffff;strokeWidth=2;verticalLabelPosition=bottom;verticalAlign=top;align=center;outlineConnect=0;rounded=1;" parent="1" vertex="1">
                    <mxGeometry x="968.4000000000001" y="758.85" width="75" height="34" as="geometry"/>
                </mxCell>
                <mxCell id="83" style="edgeStyle=none;html=1;exitX=0.015;exitY=0.985;exitDx=0;exitDy=0;exitPerimeter=0;rounded=1;strokeWidth=5;" parent="1" source="85" target="95" edge="1">
                    <mxGeometry relative="1" as="geometry"/>
                </mxCell>
                <mxCell id="84" style="edgeStyle=none;html=1;exitX=0.985;exitY=0.985;exitDx=0;exitDy=0;exitPerimeter=0;entryX=0.015;entryY=0.015;entryDx=0;entryDy=0;entryPerimeter=0;rounded=1;strokeWidth=5;" parent="1" source="85" target="81" edge="1">
                    <mxGeometry relative="1" as="geometry"/>
                </mxCell>
                <mxCell id="86" value="" style="pointerEvents=1;shadow=0;dashed=0;html=1;strokeColor=none;fillColor=#4495D1;labelPosition=center;verticalLabelPosition=bottom;verticalAlign=top;align=center;outlineConnect=0;shape=mxgraph.veeam.laptop;rounded=1;" parent="1" vertex="1">
                    <mxGeometry x="831.8" y="748.85" width="58.4" height="44" as="geometry"/>
                </mxCell>
                <mxCell id="87" value="" style="html=1;verticalLabelPosition=bottom;align=center;labelBackgroundColor=#ffffff;verticalAlign=top;strokeWidth=2;strokeColor=#0080F0;shadow=0;dashed=0;shape=mxgraph.ios7.icons.smartphone;rounded=1;" parent="1" vertex="1">
                    <mxGeometry x="988.5999999999999" y="648" width="18" height="30" as="geometry"/>
                </mxCell>
                <mxCell id="88" style="edgeStyle=none;html=1;exitX=1;exitY=0.5;exitDx=0;exitDy=0;exitPerimeter=0;rounded=1;strokeWidth=5;" parent="1" source="89" edge="1">
                    <mxGeometry relative="1" as="geometry">
                        <mxPoint x="798.6599999999996" y="927" as="targetPoint"/>
                    </mxGeometry>
                </mxCell>
                <mxCell id="89" value="" style="fontColor=#0066CC;verticalAlign=top;verticalLabelPosition=bottom;labelPosition=center;align=center;html=1;outlineConnect=0;fillColor=#CCCCCC;strokeColor=#6881B3;gradientColor=none;gradientDirection=north;strokeWidth=2;shape=mxgraph.networks.phone_2;rounded=1;" parent="1" vertex="1">
                    <mxGeometry x="845.6" y="909" width="40" height="36" as="geometry"/>
                </mxCell>
                <mxCell id="90" value="" style="pointerEvents=1;shadow=0;dashed=0;html=1;strokeColor=none;fillColor=#505050;labelPosition=center;verticalLabelPosition=bottom;verticalAlign=top;outlineConnect=0;align=center;shape=mxgraph.office.servers.database_server_green;rounded=1;" parent="1" vertex="1">
                    <mxGeometry x="1674.05" y="962.7" width="23" height="30" as="geometry"/>
                </mxCell>
                <mxCell id="91" value="" style="pointerEvents=1;shadow=0;dashed=0;html=1;strokeColor=none;fillColor=#505050;labelPosition=center;verticalLabelPosition=bottom;verticalAlign=top;outlineConnect=0;align=center;shape=mxgraph.office.servers.exchange_server;rounded=1;" parent="1" vertex="1">
                    <mxGeometry x="1644.05" y="962.7" width="30" height="30" as="geometry"/>
                </mxCell>
                <mxCell id="92" value="" style="aspect=fixed;html=1;points=[];align=center;image;fontSize=12;image=img/lib/mscae/SQL_Servers.svg;rounded=1;" parent="1" vertex="1">
                    <mxGeometry x="1701.05" y="962.7" width="30" height="30" as="geometry"/>
                </mxCell>
                <mxCell id="93" style="edgeStyle=none;html=1;exitX=0.015;exitY=0.015;exitDx=0;exitDy=0;exitPerimeter=0;entryX=0.92;entryY=0.8;entryDx=0;entryDy=0;entryPerimeter=0;fontFamily=Garamond;fontSize=22;fontColor=#f1e9e9;endArrow=classic;endFill=1;rounded=1;strokeWidth=5;" parent="1" source="95" target="82" edge="1">
                    <mxGeometry relative="1" as="geometry"/>
                </mxCell>
                <mxCell id="94" style="edgeStyle=none;html=1;exitX=0;exitY=0.5;exitDx=0;exitDy=0;exitPerimeter=0;fontFamily=Garamond;fontSize=22;fontColor=#f1e9e9;endArrow=classic;endFill=1;rounded=1;strokeWidth=5;" parent="1" source="95" edge="1">
                    <mxGeometry relative="1" as="geometry">
                        <mxPoint x="891.8" y="927.4615384615386" as="targetPoint"/>
                    </mxGeometry>
                </mxCell>
                <mxCell id="95" value="" style="points=[[0.015,0.015,0],[0.985,0.015,0],[0.985,0.985,0],[0.015,0.985,0],[0.25,0,0],[0.5,0,0],[0.75,0,0],[1,0.25,0],[1,0.5,0],[1,0.75,0],[0.75,1,0],[0.5,1,0],[0.25,1,0],[0,0.75,0],[0,0.5,0],[0,0.25,0]];verticalLabelPosition=bottom;html=1;verticalAlign=top;aspect=fixed;align=center;pointerEvents=1;shape=mxgraph.cisco19.rect;prIcon=workgroup_switch;fillColor=#FAFAFA;strokeColor=#6696AB;rounded=1;" parent="1" vertex="1">
                    <mxGeometry x="1071.8" y="897" width="60" height="60" as="geometry"/>
                </mxCell>
                <mxCell id="96" value="" style="pointerEvents=1;shadow=0;dashed=0;html=1;strokeColor=none;fillColor=#4495D1;labelPosition=center;verticalLabelPosition=bottom;verticalAlign=top;align=center;outlineConnect=0;shape=mxgraph.veeam.hyper_v_vmware_host;rounded=1;" parent="1" vertex="1">
                    <mxGeometry x="1617.3" y="1006.7" width="107" height="104" as="geometry"/>
                </mxCell>
                <mxCell id="97" value="" style="pointerEvents=1;shadow=0;dashed=0;html=1;strokeColor=none;fillColor=#505050;labelPosition=center;verticalLabelPosition=bottom;verticalAlign=top;outlineConnect=0;align=center;shape=mxgraph.office.servers.server_farm;fillColor=#DA4026;rounded=1;" parent="1" vertex="1">
                    <mxGeometry x="1614.05" y="960.7" width="15" height="32" as="geometry"/>
                </mxCell>
                <mxCell id="98" value="Core Switch" style="text;html=1;align=center;verticalAlign=middle;resizable=0;points=[];autosize=1;strokeColor=none;fillColor=none;fontStyle=1;strokeWidth=17;fontFamily=Garamond;fontSize=26;rounded=1;" parent="1" vertex="1">
                    <mxGeometry x="1170" y="499.5" width="156" height="48" as="geometry"/>
                </mxCell>
                <mxCell id="99" value="" style="html=1;verticalLabelPosition=bottom;align=center;labelBackgroundColor=#ffffff;verticalAlign=top;strokeWidth=2;strokeColor=#0080F0;shadow=0;dashed=0;shape=mxgraph.ios7.icons.wifi;pointerEvents=1;direction=north;rounded=1;" parent="1" vertex="1">
                    <mxGeometry x="907.5999999999999" y="741" width="41" height="69.7" as="geometry"/>
                </mxCell>
                <mxCell id="100" value="" style="html=1;verticalLabelPosition=bottom;align=center;labelBackgroundColor=#ffffff;verticalAlign=top;strokeWidth=2;strokeColor=#0080F0;shadow=0;dashed=0;shape=mxgraph.ios7.icons.wifi;pointerEvents=1;direction=east;rounded=1;" parent="1" vertex="1">
                    <mxGeometry x="973.6999999999998" y="699.9999999999999" width="69.7" height="41" as="geometry"/>
                </mxCell>
                <mxCell id="101" style="edgeStyle=none;html=1;exitX=0.5;exitY=0;exitDx=0;exitDy=0;exitPerimeter=0;entryX=0.75;entryY=0;entryDx=0;entryDy=0;entryPerimeter=0;fontFamily=Garamond;fontSize=19;fontColor=#000000;rounded=1;" parent="1" source="85" target="85" edge="1">
                    <mxGeometry relative="1" as="geometry"/>
                </mxCell>
                <mxCell id="102" value="Access Switch" style="text;html=1;align=center;verticalAlign=middle;resizable=0;points=[];autosize=1;strokeColor=none;fillColor=none;fontStyle=1;strokeWidth=17;fontFamily=Garamond;fontSize=26;rounded=1;" parent="1" vertex="1">
                    <mxGeometry x="1674.05" y="828" width="180" height="48" as="geometry"/>
                </mxCell>
                <mxCell id="103" value="Access Switch" style="text;html=1;align=center;verticalAlign=middle;resizable=0;points=[];autosize=1;strokeColor=none;fillColor=none;fontStyle=1;strokeWidth=17;fontFamily=Garamond;fontSize=26;rounded=1;" parent="1" vertex="1">
                    <mxGeometry x="1131.8" y="903" width="180" height="48" as="geometry"/>
                </mxCell>
                <mxCell id="104" value="Server&amp;nbsp;" style="text;html=1;align=center;verticalAlign=middle;resizable=0;points=[];autosize=1;strokeColor=none;fillColor=none;fontSize=25;fontFamily=Garamond;fontColor=#f1e9e9;rounded=1;" parent="1" vertex="1">
                    <mxGeometry x="1617.3" y="1110.7" width="96" height="48" as="geometry"/>
                </mxCell>
                <mxCell id="105" value="Access Points" style="text;html=1;align=center;verticalAlign=middle;resizable=0;points=[];autosize=1;strokeColor=none;fillColor=none;fontSize=22;fontFamily=Garamond;fontColor=#f1e9e9;fontStyle=1;rounded=1;" parent="1" vertex="1">
                    <mxGeometry x="1047.8" y="748.85" width="156" height="36" as="geometry"/>
                </mxCell>
                <mxCell id="106" value="DeskPhones" style="text;html=1;align=center;verticalAlign=middle;resizable=0;points=[];autosize=1;strokeColor=none;fillColor=none;fontSize=22;fontFamily=Garamond;fontColor=#f1e9e9;fontStyle=1;rounded=1;" parent="1" vertex="1">
                    <mxGeometry x="803.8" y="951" width="144" height="36" as="geometry"/>
                </mxCell>
                <mxCell id="107" value="VMware" style="text;html=1;align=center;verticalAlign=middle;resizable=0;points=[];autosize=1;strokeColor=none;fillColor=none;fontSize=25;fontFamily=Garamond;fontColor=#f1e9e9;fontStyle=1;rounded=1;" parent="1" vertex="1">
                    <mxGeometry x="1711.8" y="1020" width="120" height="48" as="geometry"/>
                </mxCell>
                <mxCell id="108" value="Laptops" style="text;html=1;align=center;verticalAlign=middle;resizable=0;points=[];autosize=1;strokeColor=none;fillColor=none;fontSize=22;" parent="1" vertex="1">
                    <mxGeometry x="810" y="784.85" width="102" height="42" as="geometry"/>
                </mxCell>
                <mxCell id="109" value="Mobiles" style="text;html=1;align=center;verticalAlign=middle;resizable=0;points=[];autosize=1;strokeColor=none;fillColor=none;fontSize=22;" parent="1" vertex="1">
                    <mxGeometry x="945.8" y="612" width="102" height="42" as="geometry"/>
                </mxCell>
                <mxCell id="110" value="" style="rounded=1;whiteSpace=wrap;html=1;strokeWidth=17;fontFamily=Garamond;fontSize=22;fillColor=none;" parent="1" vertex="1">
                    <mxGeometry x="1707.8" y="437" width="216" height="173" as="geometry"/>
                </mxCell>
                <mxCell id="112" value="" style="edgeStyle=none;html=1;exitX=0.5;exitY=1;exitDx=0;exitDy=0;exitPerimeter=0;entryX=0.5;entryY=0;entryDx=0;entryDy=0;entryPerimeter=0;fontFamily=Garamond;fontSize=19;fontColor=#000000;rounded=1;startArrow=none;endArrow=none;" parent="1" source="3" target="85" edge="1">
                    <mxGeometry relative="1" as="geometry">
                        <mxPoint x="1368.8000000000002" y="462" as="sourcePoint"/>
                        <mxPoint x="1368.8000000000002" y="636" as="targetPoint"/>
                    </mxGeometry>
                </mxCell>
                <mxCell id="85" value="" style="points=[[0.015,0.015,0],[0.985,0.015,0],[0.985,0.985,0],[0.015,0.985,0],[0.25,0,0],[0.5,0,0],[0.75,0,0],[1,0.25,0],[1,0.5,0],[1,0.75,0],[0.75,1,0],[0.5,1,0],[0.25,1,0],[0,0.75,0],[0,0.5,0],[0,0.25,0]];verticalLabelPosition=bottom;html=1;verticalAlign=top;aspect=fixed;align=center;pointerEvents=1;shape=mxgraph.cisco19.rect;prIcon=workgroup_switch;fillColor=#FAFAFA;strokeColor=#6696AB;rounded=1;" parent="1" vertex="1">
                    <mxGeometry x="1340.8" y="498" width="60" height="60" as="geometry"/>
                </mxCell>
                <mxCell id="113" value="Location&amp;nbsp; 1" style="text;html=1;align=center;verticalAlign=middle;resizable=0;points=[];autosize=1;strokeColor=none;fillColor=none;fontSize=50;fontStyle=1" parent="1" vertex="1">
                    <mxGeometry x="1908" y="84" width="288" height="78" as="geometry"/>
                </mxCell>
                <mxCell id="114" value="" style="rounded=0;whiteSpace=wrap;html=1;" parent="1" vertex="1">
                    <mxGeometry x="2472" y="162" width="1506" height="1062" as="geometry"/>
                </mxCell>
                <mxCell id="361" style="edgeStyle=elbowEdgeStyle;shape=link;html=1;exitX=0.5;exitY=0;exitDx=0;exitDy=0;exitPerimeter=0;entryX=1;entryY=0.5;entryDx=0;entryDy=0;strokeWidth=5;fontSize=30;" parent="1" source="116" target="20" edge="1">
                    <mxGeometry relative="1" as="geometry">
                        <Array as="points">
                            <mxPoint x="3261" y="54"/>
                        </Array>
                    </mxGeometry>
                </mxCell>
                <mxCell id="116" value="" style="points=[[0.015,0.015,0],[0.985,0.015,0],[0.985,0.985,0],[0.015,0.985,0],[0.25,0,0],[0.5,0,0],[0.75,0,0],[1,0.25,0],[1,0.5,0],[1,0.75,0],[0.75,1,0],[0.5,1,0],[0.25,1,0],[0,0.75,0],[0,0.5,0],[0,0.25,0]];verticalLabelPosition=bottom;html=1;verticalAlign=top;aspect=fixed;align=center;pointerEvents=1;shape=mxgraph.cisco19.rect;prIcon=firewall;fillColor=#FAFAFA;strokeColor=#005073;rounded=1;" parent="1" vertex="1">
                    <mxGeometry x="3226.8" y="216" width="64" height="50" as="geometry"/>
                </mxCell>
                <mxCell id="119" value="" style="shape=mxgraph.cisco.misc.access_point;html=1;pointerEvents=1;dashed=0;fillColor=#036897;strokeColor=#ffffff;strokeWidth=2;verticalLabelPosition=bottom;verticalAlign=top;align=center;outlineConnect=0;rounded=1;" parent="1" vertex="1">
                    <mxGeometry x="2620.6000000000004" y="770.85" width="75" height="34" as="geometry"/>
                </mxCell>
                <mxCell id="120" value="" style="pointerEvents=1;shadow=0;dashed=0;html=1;strokeColor=none;fillColor=#4495D1;labelPosition=center;verticalLabelPosition=bottom;verticalAlign=top;align=center;outlineConnect=0;shape=mxgraph.veeam.laptop;rounded=1;" parent="1" vertex="1">
                    <mxGeometry x="2484" y="760.85" width="58.4" height="44" as="geometry"/>
                </mxCell>
                <mxCell id="121" value="" style="html=1;verticalLabelPosition=bottom;align=center;labelBackgroundColor=#ffffff;verticalAlign=top;strokeWidth=2;strokeColor=#0080F0;shadow=0;dashed=0;shape=mxgraph.ios7.icons.smartphone;rounded=1;" parent="1" vertex="1">
                    <mxGeometry x="2640.8" y="660" width="18" height="30" as="geometry"/>
                </mxCell>
                <mxCell id="122" style="edgeStyle=none;html=1;exitX=1;exitY=0.5;exitDx=0;exitDy=0;exitPerimeter=0;rounded=1;" parent="1" source="123" target="124" edge="1">
                    <mxGeometry relative="1" as="geometry"/>
                </mxCell>
                <mxCell id="123" value="" style="fontColor=#0066CC;verticalAlign=top;verticalLabelPosition=bottom;labelPosition=center;align=center;html=1;outlineConnect=0;fillColor=#CCCCCC;strokeColor=#6881B3;gradientColor=none;gradientDirection=north;strokeWidth=2;shape=mxgraph.networks.phone_2;rounded=1;" parent="1" vertex="1">
                    <mxGeometry x="3018.7999999999997" y="973" width="40" height="36" as="geometry"/>
                </mxCell>
                <mxCell id="124" value="" style="verticalLabelPosition=bottom;aspect=fixed;html=1;verticalAlign=top;strokeColor=none;align=center;outlineConnect=0;shape=mxgraph.citrix.desktop;rounded=1;" parent="1" vertex="1">
                    <mxGeometry x="2921" y="963" width="50.86" height="56" as="geometry"/>
                </mxCell>
                <mxCell id="129" style="edgeStyle=none;html=1;exitX=0.015;exitY=0.015;exitDx=0;exitDy=0;exitPerimeter=0;entryX=0.92;entryY=0.8;entryDx=0;entryDy=0;entryPerimeter=0;fontFamily=Garamond;fontSize=22;fontColor=#f1e9e9;endArrow=classic;endFill=1;rounded=1;strokeWidth=5;" parent="1" source="131" target="119" edge="1">
                    <mxGeometry relative="1" as="geometry"/>
                </mxCell>
                <mxCell id="191" style="edgeStyle=none;html=1;exitX=0.5;exitY=1;exitDx=0;exitDy=0;exitPerimeter=0;fontSize=30;strokeWidth=5;" parent="1" source="131" edge="1">
                    <mxGeometry relative="1" as="geometry">
                        <mxPoint x="3022.7" y="969" as="targetPoint"/>
                    </mxGeometry>
                </mxCell>
                <mxCell id="131" value="" style="points=[[0.015,0.015,0],[0.985,0.015,0],[0.985,0.985,0],[0.015,0.985,0],[0.25,0,0],[0.5,0,0],[0.75,0,0],[1,0.25,0],[1,0.5,0],[1,0.75,0],[0.75,1,0],[0.5,1,0],[0.25,1,0],[0,0.75,0],[0,0.5,0],[0,0.25,0]];verticalLabelPosition=bottom;html=1;verticalAlign=top;aspect=fixed;align=center;pointerEvents=1;shape=mxgraph.cisco19.rect;prIcon=workgroup_switch;fillColor=#FAFAFA;strokeColor=#6696AB;rounded=1;" parent="1" vertex="1">
                    <mxGeometry x="2993" y="699" width="60" height="60" as="geometry"/>
                </mxCell>
                <mxCell id="135" value="" style="html=1;verticalLabelPosition=bottom;align=center;labelBackgroundColor=#ffffff;verticalAlign=top;strokeWidth=2;strokeColor=#0080F0;shadow=0;dashed=0;shape=mxgraph.ios7.icons.wifi;pointerEvents=1;direction=north;rounded=1;" parent="1" vertex="1">
                    <mxGeometry x="2559.8" y="753" width="41" height="69.7" as="geometry"/>
                </mxCell>
                <mxCell id="136" value="" style="html=1;verticalLabelPosition=bottom;align=center;labelBackgroundColor=#ffffff;verticalAlign=top;strokeWidth=2;strokeColor=#0080F0;shadow=0;dashed=0;shape=mxgraph.ios7.icons.wifi;pointerEvents=1;direction=east;rounded=1;" parent="1" vertex="1">
                    <mxGeometry x="2625.8999999999996" y="711.9999999999999" width="69.7" height="41" as="geometry"/>
                </mxCell>
                <mxCell id="147" value="Desktops" style="text;html=1;align=center;verticalAlign=middle;resizable=0;points=[];autosize=1;strokeColor=none;fillColor=none;fontSize=22;fontFamily=Garamond;fontColor=#f1e9e9;fontStyle=1;rounded=1;" parent="1" vertex="1">
                    <mxGeometry x="2834.2" y="1003.7" width="120" height="36" as="geometry"/>
                </mxCell>
                <mxCell id="151" value="" style="edgeStyle=none;html=1;exitX=0.5;exitY=1;exitDx=0;exitDy=0;exitPerimeter=0;entryX=0.5;entryY=0;entryDx=0;entryDy=0;entryPerimeter=0;fontFamily=Garamond;fontSize=19;fontColor=#000000;rounded=1;endArrow=none;strokeWidth=5;" parent="1" source="116" target="152" edge="1">
                    <mxGeometry relative="1" as="geometry">
                        <mxPoint x="3258.8" y="539" as="sourcePoint"/>
                        <mxPoint x="3258.8" y="645" as="targetPoint"/>
                    </mxGeometry>
                </mxCell>
                <mxCell id="152" value="FIrewall" style="text;html=1;align=center;verticalAlign=middle;resizable=0;points=[];autosize=1;strokeColor=none;fillColor=none;fontSize=22;rounded=1;" parent="1" vertex="1">
                    <mxGeometry x="3206.8" y="306" width="108" height="36" as="geometry"/>
                </mxCell>
                <mxCell id="153" value="Laptops" style="text;html=1;align=center;verticalAlign=middle;resizable=0;points=[];autosize=1;strokeColor=none;fillColor=none;fontSize=22;" parent="1" vertex="1">
                    <mxGeometry x="2695.6" y="820.85" width="102" height="42" as="geometry"/>
                </mxCell>
                <mxCell id="154" value="Mobiles" style="text;html=1;align=center;verticalAlign=middle;resizable=0;points=[];autosize=1;strokeColor=none;fillColor=none;fontSize=22;" parent="1" vertex="1">
                    <mxGeometry x="2598" y="624" width="102" height="42" as="geometry"/>
                </mxCell>
                <mxCell id="157" value="" style="shape=mxgraph.cisco.misc.access_point;html=1;pointerEvents=1;dashed=0;fillColor=#036897;strokeColor=#ffffff;strokeWidth=2;verticalLabelPosition=bottom;verticalAlign=top;align=center;outlineConnect=0;rounded=1;" parent="1" vertex="1">
                    <mxGeometry x="2620.6000000000004" y="770.85" width="75" height="34" as="geometry"/>
                </mxCell>
                <mxCell id="160" value="" style="pointerEvents=1;shadow=0;dashed=0;html=1;strokeColor=none;fillColor=#4495D1;labelPosition=center;verticalLabelPosition=bottom;verticalAlign=top;align=center;outlineConnect=0;shape=mxgraph.veeam.laptop;rounded=1;" parent="1" vertex="1">
                    <mxGeometry x="2484" y="760.85" width="58.4" height="44" as="geometry"/>
                </mxCell>
                <mxCell id="161" value="" style="html=1;verticalLabelPosition=bottom;align=center;labelBackgroundColor=#ffffff;verticalAlign=top;strokeWidth=2;strokeColor=#0080F0;shadow=0;dashed=0;shape=mxgraph.ios7.icons.smartphone;rounded=1;" parent="1" vertex="1">
                    <mxGeometry x="2640.8" y="660" width="18" height="30" as="geometry"/>
                </mxCell>
                <mxCell id="162" style="edgeStyle=none;html=1;exitX=1;exitY=0.5;exitDx=0;exitDy=0;exitPerimeter=0;rounded=1;strokeWidth=5;" parent="1" source="163" edge="1">
                    <mxGeometry relative="1" as="geometry">
                        <mxPoint x="2971.8599999999997" y="991" as="targetPoint"/>
                    </mxGeometry>
                </mxCell>
                <mxCell id="163" value="" style="fontColor=#0066CC;verticalAlign=top;verticalLabelPosition=bottom;labelPosition=center;align=center;html=1;outlineConnect=0;fillColor=#CCCCCC;strokeColor=#6881B3;gradientColor=none;gradientDirection=north;strokeWidth=2;shape=mxgraph.networks.phone_2;rounded=1;" parent="1" vertex="1">
                    <mxGeometry x="3018.7999999999997" y="973" width="40" height="36" as="geometry"/>
                </mxCell>
                <mxCell id="172" value="Core Switch" style="text;html=1;align=center;verticalAlign=middle;resizable=0;points=[];autosize=1;strokeColor=none;fillColor=none;fontStyle=1;strokeWidth=17;fontFamily=Garamond;fontSize=26;rounded=1;" parent="1" vertex="1">
                    <mxGeometry x="3296.6" y="474.5" width="156" height="48" as="geometry"/>
                </mxCell>
                <mxCell id="173" value="" style="html=1;verticalLabelPosition=bottom;align=center;labelBackgroundColor=#ffffff;verticalAlign=top;strokeWidth=2;strokeColor=#0080F0;shadow=0;dashed=0;shape=mxgraph.ios7.icons.wifi;pointerEvents=1;direction=north;rounded=1;" parent="1" vertex="1">
                    <mxGeometry x="2559.8" y="753" width="41" height="69.7" as="geometry"/>
                </mxCell>
                <mxCell id="174" value="" style="html=1;verticalLabelPosition=bottom;align=center;labelBackgroundColor=#ffffff;verticalAlign=top;strokeWidth=2;strokeColor=#0080F0;shadow=0;dashed=0;shape=mxgraph.ios7.icons.wifi;pointerEvents=1;direction=east;rounded=1;" parent="1" vertex="1">
                    <mxGeometry x="2625.8999999999996" y="711.9999999999999" width="69.7" height="41" as="geometry"/>
                </mxCell>
                <mxCell id="175" style="edgeStyle=none;html=1;exitX=0.5;exitY=0;exitDx=0;exitDy=0;exitPerimeter=0;entryX=0.75;entryY=0;entryDx=0;entryDy=0;entryPerimeter=0;fontFamily=Garamond;fontSize=19;fontColor=#000000;rounded=1;" parent="1" source="186" target="186" edge="1">
                    <mxGeometry relative="1" as="geometry"/>
                </mxCell>
                <mxCell id="177" value="Access Switch" style="text;html=1;align=center;verticalAlign=middle;resizable=0;points=[];autosize=1;strokeColor=none;fillColor=none;fontStyle=1;strokeWidth=17;fontFamily=Garamond;fontSize=26;rounded=1;" parent="1" vertex="1">
                    <mxGeometry x="3062.2" y="705" width="180" height="48" as="geometry"/>
                </mxCell>
                <mxCell id="180" value="DeskPhones" style="text;html=1;align=center;verticalAlign=middle;resizable=0;points=[];autosize=1;strokeColor=none;fillColor=none;fontSize=22;fontFamily=Garamond;fontColor=#f1e9e9;fontStyle=1;rounded=1;" parent="1" vertex="1">
                    <mxGeometry x="3026.2" y="1015" width="144" height="36" as="geometry"/>
                </mxCell>
                <mxCell id="185" value="" style="edgeStyle=none;html=1;exitX=0.5;exitY=1;exitDx=0;exitDy=0;exitPerimeter=0;entryX=0.5;entryY=0;entryDx=0;entryDy=0;entryPerimeter=0;fontFamily=Garamond;fontSize=19;fontColor=#000000;rounded=1;startArrow=none;endArrow=none;strokeWidth=5;" parent="1" source="152" target="186" edge="1">
                    <mxGeometry relative="1" as="geometry">
                        <mxPoint x="3258.8" y="471" as="sourcePoint"/>
                        <mxPoint x="3258.8" y="645" as="targetPoint"/>
                    </mxGeometry>
                </mxCell>
                <mxCell id="190" style="edgeStyle=none;html=1;exitX=0.5;exitY=1;exitDx=0;exitDy=0;exitPerimeter=0;entryX=0.5;entryY=0;entryDx=0;entryDy=0;entryPerimeter=0;fontSize=30;strokeWidth=5;" parent="1" source="186" target="131" edge="1">
                    <mxGeometry relative="1" as="geometry"/>
                </mxCell>
                <mxCell id="241" style="edgeStyle=none;html=1;exitX=0.985;exitY=0.985;exitDx=0;exitDy=0;exitPerimeter=0;entryX=0.5;entryY=0;entryDx=0;entryDy=0;entryPerimeter=0;strokeWidth=5;fontSize=30;" parent="1" source="186" target="223" edge="1">
                    <mxGeometry relative="1" as="geometry"/>
                </mxCell>
                <mxCell id="186" value="" style="points=[[0.015,0.015,0],[0.985,0.015,0],[0.985,0.985,0],[0.015,0.985,0],[0.25,0,0],[0.5,0,0],[0.75,0,0],[1,0.25,0],[1,0.5,0],[1,0.75,0],[0.75,1,0],[0.5,1,0],[0.25,1,0],[0,0.75,0],[0,0.5,0],[0,0.25,0]];verticalLabelPosition=bottom;html=1;verticalAlign=top;aspect=fixed;align=center;pointerEvents=1;shape=mxgraph.cisco19.rect;prIcon=workgroup_switch;fillColor=#FAFAFA;strokeColor=#6696AB;rounded=1;" parent="1" vertex="1">
                    <mxGeometry x="3230.8" y="462" width="60" height="60" as="geometry"/>
                </mxCell>
                <mxCell id="187" value="Location 3" style="text;html=1;align=center;verticalAlign=middle;resizable=0;points=[];autosize=1;strokeColor=none;fillColor=none;fontSize=50;fontStyle=1" parent="1" vertex="1">
                    <mxGeometry x="3728.8" y="78" width="276" height="78" as="geometry"/>
                </mxCell>
                <mxCell id="215" value="" style="shape=mxgraph.cisco.misc.access_point;html=1;pointerEvents=1;dashed=0;fillColor=#036897;strokeColor=#ffffff;strokeWidth=2;verticalLabelPosition=bottom;verticalAlign=top;align=center;outlineConnect=0;rounded=1;" parent="1" vertex="1">
                    <mxGeometry x="3702.8" y="829.35" width="75" height="34" as="geometry"/>
                </mxCell>
                <mxCell id="217" value="" style="html=1;verticalLabelPosition=bottom;align=center;labelBackgroundColor=#ffffff;verticalAlign=top;strokeWidth=2;strokeColor=#0080F0;shadow=0;dashed=0;shape=mxgraph.ios7.icons.smartphone;rounded=1;" parent="1" vertex="1">
                    <mxGeometry x="3723" y="718.5" width="18" height="30" as="geometry"/>
                </mxCell>
                <mxCell id="218" style="edgeStyle=none;html=1;exitX=1;exitY=0.5;exitDx=0;exitDy=0;exitPerimeter=0;rounded=1;" parent="1" source="219" target="220" edge="1">
                    <mxGeometry relative="1" as="geometry"/>
                </mxCell>
                <mxCell id="219" value="" style="fontColor=#0066CC;verticalAlign=top;verticalLabelPosition=bottom;labelPosition=center;align=center;html=1;outlineConnect=0;fillColor=#CCCCCC;strokeColor=#6881B3;gradientColor=none;gradientDirection=north;strokeWidth=2;shape=mxgraph.networks.phone_2;rounded=1;" parent="1" vertex="1">
                    <mxGeometry x="3514.6" y="955" width="40" height="36" as="geometry"/>
                </mxCell>
                <mxCell id="220" value="" style="verticalLabelPosition=bottom;aspect=fixed;html=1;verticalAlign=top;strokeColor=none;align=center;outlineConnect=0;shape=mxgraph.citrix.desktop;rounded=1;" parent="1" vertex="1">
                    <mxGeometry x="3416.8" y="945" width="50.86" height="56" as="geometry"/>
                </mxCell>
                <mxCell id="221" style="edgeStyle=none;html=1;exitX=0.015;exitY=0.015;exitDx=0;exitDy=0;exitPerimeter=0;entryX=0.92;entryY=0.8;entryDx=0;entryDy=0;entryPerimeter=0;fontFamily=Garamond;fontSize=22;fontColor=#f1e9e9;endArrow=classic;endFill=1;rounded=1;strokeWidth=5;" parent="1" source="223" target="215" edge="1">
                    <mxGeometry relative="1" as="geometry"/>
                </mxCell>
                <mxCell id="240" style="edgeStyle=none;html=1;exitX=0.5;exitY=1;exitDx=0;exitDy=0;exitPerimeter=0;strokeWidth=5;fontSize=30;" parent="1" source="223" edge="1">
                    <mxGeometry relative="1" as="geometry">
                        <mxPoint x="3528" y="960" as="targetPoint"/>
                    </mxGeometry>
                </mxCell>
                <mxCell id="223" value="" style="points=[[0.015,0.015,0],[0.985,0.015,0],[0.985,0.985,0],[0.015,0.985,0],[0.25,0,0],[0.5,0,0],[0.75,0,0],[1,0.25,0],[1,0.5,0],[1,0.75,0],[0.75,1,0],[0.5,1,0],[0.25,1,0],[0,0.75,0],[0,0.5,0],[0,0.25,0]];verticalLabelPosition=bottom;html=1;verticalAlign=top;aspect=fixed;align=center;pointerEvents=1;shape=mxgraph.cisco19.rect;prIcon=workgroup_switch;fillColor=#FAFAFA;strokeColor=#6696AB;rounded=1;" parent="1" vertex="1">
                    <mxGeometry x="3314.8000000000006" y="624" width="60" height="60" as="geometry"/>
                </mxCell>
                <mxCell id="225" value="" style="html=1;verticalLabelPosition=bottom;align=center;labelBackgroundColor=#ffffff;verticalAlign=top;strokeWidth=2;strokeColor=#0080F0;shadow=0;dashed=0;shape=mxgraph.ios7.icons.wifi;pointerEvents=1;direction=east;rounded=1;" parent="1" vertex="1">
                    <mxGeometry x="3708.1" y="770.4999999999999" width="69.7" height="41" as="geometry"/>
                </mxCell>
                <mxCell id="226" value="Desktops" style="text;html=1;align=center;verticalAlign=middle;resizable=0;points=[];autosize=1;strokeColor=none;fillColor=none;fontSize=22;fontFamily=Garamond;fontColor=#f1e9e9;fontStyle=1;rounded=1;" parent="1" vertex="1">
                    <mxGeometry x="3330" y="985.7" width="120" height="36" as="geometry"/>
                </mxCell>
                <mxCell id="227" value="Laptops" style="text;html=1;align=center;verticalAlign=middle;resizable=0;points=[];autosize=1;strokeColor=none;fillColor=none;fontSize=22;" parent="1" vertex="1">
                    <mxGeometry x="3846" y="870" width="102" height="42" as="geometry"/>
                </mxCell>
                <mxCell id="228" value="Mobiles" style="text;html=1;align=center;verticalAlign=middle;resizable=0;points=[];autosize=1;strokeColor=none;fillColor=none;fontSize=22;" parent="1" vertex="1">
                    <mxGeometry x="3681" y="672" width="102" height="42" as="geometry"/>
                </mxCell>
                <mxCell id="229" value="" style="shape=mxgraph.cisco.misc.access_point;html=1;pointerEvents=1;dashed=0;fillColor=#036897;strokeColor=#ffffff;strokeWidth=2;verticalLabelPosition=bottom;verticalAlign=top;align=center;outlineConnect=0;rounded=1;" parent="1" vertex="1">
                    <mxGeometry x="3702.8" y="829.35" width="75" height="34" as="geometry"/>
                </mxCell>
                <mxCell id="230" value="" style="pointerEvents=1;shadow=0;dashed=0;html=1;strokeColor=none;fillColor=#4495D1;labelPosition=center;verticalLabelPosition=bottom;verticalAlign=top;align=center;outlineConnect=0;shape=mxgraph.veeam.laptop;rounded=1;" parent="1" vertex="1">
                    <mxGeometry x="3858" y="818.85" width="58.4" height="44" as="geometry"/>
                </mxCell>
                <mxCell id="231" value="" style="html=1;verticalLabelPosition=bottom;align=center;labelBackgroundColor=#ffffff;verticalAlign=top;strokeWidth=2;strokeColor=#0080F0;shadow=0;dashed=0;shape=mxgraph.ios7.icons.smartphone;rounded=1;" parent="1" vertex="1">
                    <mxGeometry x="3723" y="718.5" width="18" height="30" as="geometry"/>
                </mxCell>
                <mxCell id="232" style="edgeStyle=none;html=1;exitX=1;exitY=0.5;exitDx=0;exitDy=0;exitPerimeter=0;rounded=1;strokeWidth=5;" parent="1" source="233" edge="1">
                    <mxGeometry relative="1" as="geometry">
                        <mxPoint x="3467.66" y="973" as="targetPoint"/>
                    </mxGeometry>
                </mxCell>
                <mxCell id="233" value="" style="fontColor=#0066CC;verticalAlign=top;verticalLabelPosition=bottom;labelPosition=center;align=center;html=1;outlineConnect=0;fillColor=#CCCCCC;strokeColor=#6881B3;gradientColor=none;gradientDirection=north;strokeWidth=2;shape=mxgraph.networks.phone_2;rounded=1;" parent="1" vertex="1">
                    <mxGeometry x="3514.6" y="955" width="40" height="36" as="geometry"/>
                </mxCell>
                <mxCell id="239" value="" style="edgeStyle=none;html=1;strokeWidth=5;fontSize=30;" parent="1" source="234" target="230" edge="1">
                    <mxGeometry relative="1" as="geometry"/>
                </mxCell>
                <mxCell id="234" value="" style="html=1;verticalLabelPosition=bottom;align=center;labelBackgroundColor=#ffffff;verticalAlign=top;strokeWidth=2;strokeColor=#0080F0;shadow=0;dashed=0;shape=mxgraph.ios7.icons.wifi;pointerEvents=1;direction=south;rounded=1;" parent="1" vertex="1">
                    <mxGeometry x="3810" y="816" width="41" height="69.7" as="geometry"/>
                </mxCell>
                <mxCell id="235" value="" style="html=1;verticalLabelPosition=bottom;align=center;labelBackgroundColor=#ffffff;verticalAlign=top;strokeWidth=2;strokeColor=#0080F0;shadow=0;dashed=0;shape=mxgraph.ios7.icons.wifi;pointerEvents=1;direction=east;rounded=1;" parent="1" vertex="1">
                    <mxGeometry x="3708.1" y="770.5" width="69.7" height="44" as="geometry"/>
                </mxCell>
                <mxCell id="236" value="Access Switch" style="text;html=1;align=center;verticalAlign=middle;resizable=0;points=[];autosize=1;strokeColor=none;fillColor=none;fontStyle=1;strokeWidth=17;fontFamily=Garamond;fontSize=26;rounded=1;" parent="1" vertex="1">
                    <mxGeometry x="3462" y="633" width="180" height="48" as="geometry"/>
                </mxCell>
                <mxCell id="237" value="DeskPhones" style="text;html=1;align=center;verticalAlign=middle;resizable=0;points=[];autosize=1;strokeColor=none;fillColor=none;fontSize=22;fontFamily=Garamond;fontColor=#f1e9e9;fontStyle=1;rounded=1;" parent="1" vertex="1">
                    <mxGeometry x="3488.2999999999997" y="996.3499999999999" width="144" height="36" as="geometry"/>
                </mxCell>
                <mxCell id="243" value="" style="rounded=0;whiteSpace=wrap;html=1;" parent="1" vertex="1">
                    <mxGeometry x="747.8" y="-1201.5" width="1452" height="1068" as="geometry"/>
                </mxCell>
                <mxCell id="359" style="edgeStyle=elbowEdgeStyle;shape=link;html=1;entryX=0.5;entryY=0;entryDx=0;entryDy=0;strokeWidth=5;fontSize=30;exitX=0.5;exitY=0;exitDx=0;exitDy=0;exitPerimeter=0;" parent="1" source="244" target="20" edge="1">
                    <mxGeometry relative="1" as="geometry">
                        <mxPoint x="1602" y="-1410" as="sourcePoint"/>
                        <Array as="points">
                            <mxPoint x="2259" y="-1428"/>
                            <mxPoint x="2310" y="-1138"/>
                        </Array>
                    </mxGeometry>
                </mxCell>
                <mxCell id="244" value="" style="points=[[0.015,0.015,0],[0.985,0.015,0],[0.985,0.985,0],[0.015,0.985,0],[0.25,0,0],[0.5,0,0],[0.75,0,0],[1,0.25,0],[1,0.5,0],[1,0.75,0],[0.75,1,0],[0.5,1,0],[0.25,1,0],[0,0.75,0],[0,0.5,0],[0,0.25,0]];verticalLabelPosition=bottom;html=1;verticalAlign=top;aspect=fixed;align=center;pointerEvents=1;shape=mxgraph.cisco19.rect;prIcon=firewall;fillColor=#FAFAFA;strokeColor=#005073;rounded=1;" parent="1" vertex="1">
                    <mxGeometry x="1528.6000000000004" y="-1138.5" width="64" height="50" as="geometry"/>
                </mxCell>
                <mxCell id="245" value="" style="shape=mxgraph.cisco.misc.access_point;html=1;pointerEvents=1;dashed=0;fillColor=#036897;strokeColor=#ffffff;strokeWidth=2;verticalLabelPosition=bottom;verticalAlign=top;align=center;outlineConnect=0;rounded=1;" parent="1" vertex="1">
                    <mxGeometry x="920.4000000000005" y="-559.65" width="75" height="34" as="geometry"/>
                </mxCell>
                <mxCell id="246" value="" style="pointerEvents=1;shadow=0;dashed=0;html=1;strokeColor=none;fillColor=#4495D1;labelPosition=center;verticalLabelPosition=bottom;verticalAlign=top;align=center;outlineConnect=0;shape=mxgraph.veeam.laptop;rounded=1;" parent="1" vertex="1">
                    <mxGeometry x="783.8000000000002" y="-569.65" width="58.4" height="44" as="geometry"/>
                </mxCell>
                <mxCell id="247" value="" style="html=1;verticalLabelPosition=bottom;align=center;labelBackgroundColor=#ffffff;verticalAlign=top;strokeWidth=2;strokeColor=#0080F0;shadow=0;dashed=0;shape=mxgraph.ios7.icons.smartphone;rounded=1;" parent="1" vertex="1">
                    <mxGeometry x="940.6000000000004" y="-670.5" width="18" height="30" as="geometry"/>
                </mxCell>
                <mxCell id="248" style="edgeStyle=none;html=1;exitX=1;exitY=0.5;exitDx=0;exitDy=0;exitPerimeter=0;rounded=1;" parent="1" source="249" target="250" edge="1">
                    <mxGeometry relative="1" as="geometry"/>
                </mxCell>
                <mxCell id="249" value="" style="fontColor=#0066CC;verticalAlign=top;verticalLabelPosition=bottom;labelPosition=center;align=center;html=1;outlineConnect=0;fillColor=#CCCCCC;strokeColor=#6881B3;gradientColor=none;gradientDirection=north;strokeWidth=2;shape=mxgraph.networks.phone_2;rounded=1;" parent="1" vertex="1">
                    <mxGeometry x="1318.6" y="-357.5" width="40" height="36" as="geometry"/>
                </mxCell>
                <mxCell id="250" value="" style="verticalLabelPosition=bottom;aspect=fixed;html=1;verticalAlign=top;strokeColor=none;align=center;outlineConnect=0;shape=mxgraph.citrix.desktop;rounded=1;" parent="1" vertex="1">
                    <mxGeometry x="1220.8000000000002" y="-367.5" width="50.86" height="56" as="geometry"/>
                </mxCell>
                <mxCell id="251" style="edgeStyle=none;html=1;exitX=0.015;exitY=0.015;exitDx=0;exitDy=0;exitPerimeter=0;entryX=0.92;entryY=0.8;entryDx=0;entryDy=0;entryPerimeter=0;fontFamily=Garamond;fontSize=22;fontColor=#f1e9e9;endArrow=classic;endFill=1;rounded=1;strokeWidth=5;" parent="1" source="253" target="245" edge="1">
                    <mxGeometry relative="1" as="geometry"/>
                </mxCell>
                <mxCell id="252" style="edgeStyle=none;html=1;exitX=0.5;exitY=1;exitDx=0;exitDy=0;exitPerimeter=0;fontSize=30;strokeWidth=5;" parent="1" source="253" edge="1">
                    <mxGeometry relative="1" as="geometry">
                        <mxPoint x="1322.5" y="-361.5" as="targetPoint"/>
                    </mxGeometry>
                </mxCell>
                <mxCell id="253" value="" style="points=[[0.015,0.015,0],[0.985,0.015,0],[0.985,0.985,0],[0.015,0.985,0],[0.25,0,0],[0.5,0,0],[0.75,0,0],[1,0.25,0],[1,0.5,0],[1,0.75,0],[0.75,1,0],[0.5,1,0],[0.25,1,0],[0,0.75,0],[0,0.5,0],[0,0.25,0]];verticalLabelPosition=bottom;html=1;verticalAlign=top;aspect=fixed;align=center;pointerEvents=1;shape=mxgraph.cisco19.rect;prIcon=workgroup_switch;fillColor=#FAFAFA;strokeColor=#6696AB;rounded=1;" parent="1" vertex="1">
                    <mxGeometry x="1292.8000000000002" y="-631.5" width="60" height="60" as="geometry"/>
                </mxCell>
                <mxCell id="254" value="" style="html=1;verticalLabelPosition=bottom;align=center;labelBackgroundColor=#ffffff;verticalAlign=top;strokeWidth=2;strokeColor=#0080F0;shadow=0;dashed=0;shape=mxgraph.ios7.icons.wifi;pointerEvents=1;direction=north;rounded=1;" parent="1" vertex="1">
                    <mxGeometry x="859.6000000000004" y="-577.5" width="41" height="69.7" as="geometry"/>
                </mxCell>
                <mxCell id="255" value="" style="html=1;verticalLabelPosition=bottom;align=center;labelBackgroundColor=#ffffff;verticalAlign=top;strokeWidth=2;strokeColor=#0080F0;shadow=0;dashed=0;shape=mxgraph.ios7.icons.wifi;pointerEvents=1;direction=east;rounded=1;" parent="1" vertex="1">
                    <mxGeometry x="925.6999999999998" y="-618.5000000000001" width="69.7" height="41" as="geometry"/>
                </mxCell>
                <mxCell id="256" value="Desktops" style="text;html=1;align=center;verticalAlign=middle;resizable=0;points=[];autosize=1;strokeColor=none;fillColor=none;fontSize=22;fontFamily=Garamond;fontColor=#f1e9e9;fontStyle=1;rounded=1;" parent="1" vertex="1">
                    <mxGeometry x="1134" y="-326.79999999999995" width="120" height="36" as="geometry"/>
                </mxCell>
                <mxCell id="257" value="" style="edgeStyle=none;html=1;exitX=0.5;exitY=1;exitDx=0;exitDy=0;exitPerimeter=0;entryX=0.5;entryY=0;entryDx=0;entryDy=0;entryPerimeter=0;fontFamily=Garamond;fontSize=19;fontColor=#000000;rounded=1;endArrow=none;strokeWidth=5;" parent="1" source="244" target="258" edge="1">
                    <mxGeometry relative="1" as="geometry">
                        <mxPoint x="1558.6000000000004" y="-791.5" as="sourcePoint"/>
                        <mxPoint x="1558.6000000000004" y="-685.5" as="targetPoint"/>
                    </mxGeometry>
                </mxCell>
                <mxCell id="258" value="FIrewall" style="text;html=1;align=center;verticalAlign=middle;resizable=0;points=[];autosize=1;strokeColor=none;fillColor=none;fontSize=22;rounded=1;" parent="1" vertex="1">
                    <mxGeometry x="1506.6000000000004" y="-1024.5" width="108" height="36" as="geometry"/>
                </mxCell>
                <mxCell id="259" value="Laptops" style="text;html=1;align=center;verticalAlign=middle;resizable=0;points=[];autosize=1;strokeColor=none;fillColor=none;fontSize=22;" parent="1" vertex="1">
                    <mxGeometry x="995.4000000000001" y="-509.65" width="102" height="42" as="geometry"/>
                </mxCell>
                <mxCell id="260" value="Mobiles" style="text;html=1;align=center;verticalAlign=middle;resizable=0;points=[];autosize=1;strokeColor=none;fillColor=none;fontSize=22;" parent="1" vertex="1">
                    <mxGeometry x="897.8000000000002" y="-706.5" width="102" height="42" as="geometry"/>
                </mxCell>
                <mxCell id="261" value="" style="shape=mxgraph.cisco.misc.access_point;html=1;pointerEvents=1;dashed=0;fillColor=#036897;strokeColor=#ffffff;strokeWidth=2;verticalLabelPosition=bottom;verticalAlign=top;align=center;outlineConnect=0;rounded=1;" parent="1" vertex="1">
                    <mxGeometry x="920.4000000000005" y="-559.65" width="75" height="34" as="geometry"/>
                </mxCell>
                <mxCell id="262" value="" style="pointerEvents=1;shadow=0;dashed=0;html=1;strokeColor=none;fillColor=#4495D1;labelPosition=center;verticalLabelPosition=bottom;verticalAlign=top;align=center;outlineConnect=0;shape=mxgraph.veeam.laptop;rounded=1;" parent="1" vertex="1">
                    <mxGeometry x="783.8000000000002" y="-569.65" width="58.4" height="44" as="geometry"/>
                </mxCell>
                <mxCell id="263" value="" style="html=1;verticalLabelPosition=bottom;align=center;labelBackgroundColor=#ffffff;verticalAlign=top;strokeWidth=2;strokeColor=#0080F0;shadow=0;dashed=0;shape=mxgraph.ios7.icons.smartphone;rounded=1;" parent="1" vertex="1">
                    <mxGeometry x="940.6000000000004" y="-670.5" width="18" height="30" as="geometry"/>
                </mxCell>
                <mxCell id="264" style="edgeStyle=none;html=1;exitX=1;exitY=0.5;exitDx=0;exitDy=0;exitPerimeter=0;rounded=1;strokeWidth=5;" parent="1" source="265" edge="1">
                    <mxGeometry relative="1" as="geometry">
                        <mxPoint x="1271.6599999999999" y="-339.5" as="targetPoint"/>
                    </mxGeometry>
                </mxCell>
                <mxCell id="265" value="" style="fontColor=#0066CC;verticalAlign=top;verticalLabelPosition=bottom;labelPosition=center;align=center;html=1;outlineConnect=0;fillColor=#CCCCCC;strokeColor=#6881B3;gradientColor=none;gradientDirection=north;strokeWidth=2;shape=mxgraph.networks.phone_2;rounded=1;" parent="1" vertex="1">
                    <mxGeometry x="1318.6" y="-357.5" width="40" height="36" as="geometry"/>
                </mxCell>
                <mxCell id="266" value="Core Switch" style="text;html=1;align=center;verticalAlign=middle;resizable=0;points=[];autosize=1;strokeColor=none;fillColor=none;fontStyle=1;strokeWidth=17;fontFamily=Garamond;fontSize=26;rounded=1;" parent="1" vertex="1">
                    <mxGeometry x="1596.4" y="-856" width="156" height="48" as="geometry"/>
                </mxCell>
                <mxCell id="267" value="" style="html=1;verticalLabelPosition=bottom;align=center;labelBackgroundColor=#ffffff;verticalAlign=top;strokeWidth=2;strokeColor=#0080F0;shadow=0;dashed=0;shape=mxgraph.ios7.icons.wifi;pointerEvents=1;direction=north;rounded=1;" parent="1" vertex="1">
                    <mxGeometry x="859.6000000000004" y="-577.5" width="41" height="69.7" as="geometry"/>
                </mxCell>
                <mxCell id="268" value="" style="html=1;verticalLabelPosition=bottom;align=center;labelBackgroundColor=#ffffff;verticalAlign=top;strokeWidth=2;strokeColor=#0080F0;shadow=0;dashed=0;shape=mxgraph.ios7.icons.wifi;pointerEvents=1;direction=east;rounded=1;" parent="1" vertex="1">
                    <mxGeometry x="925.6999999999998" y="-618.5000000000001" width="69.7" height="41" as="geometry"/>
                </mxCell>
                <mxCell id="269" style="edgeStyle=none;html=1;exitX=0.5;exitY=0;exitDx=0;exitDy=0;exitPerimeter=0;entryX=0.75;entryY=0;entryDx=0;entryDy=0;entryPerimeter=0;fontFamily=Garamond;fontSize=19;fontColor=#000000;rounded=1;" parent="1" source="275" target="275" edge="1">
                    <mxGeometry relative="1" as="geometry"/>
                </mxCell>
                <mxCell id="270" value="Access Switch" style="text;html=1;align=center;verticalAlign=middle;resizable=0;points=[];autosize=1;strokeColor=none;fillColor=none;fontStyle=1;strokeWidth=17;fontFamily=Garamond;fontSize=26;rounded=1;" parent="1" vertex="1">
                    <mxGeometry x="1362" y="-625.5" width="180" height="48" as="geometry"/>
                </mxCell>
                <mxCell id="271" value="DeskPhones" style="text;html=1;align=center;verticalAlign=middle;resizable=0;points=[];autosize=1;strokeColor=none;fillColor=none;fontSize=22;fontFamily=Garamond;fontColor=#f1e9e9;fontStyle=1;rounded=1;" parent="1" vertex="1">
                    <mxGeometry x="1326" y="-315.5" width="144" height="36" as="geometry"/>
                </mxCell>
                <mxCell id="272" value="" style="edgeStyle=none;html=1;exitX=0.5;exitY=1;exitDx=0;exitDy=0;exitPerimeter=0;entryX=0.5;entryY=0;entryDx=0;entryDy=0;entryPerimeter=0;fontFamily=Garamond;fontSize=19;fontColor=#000000;rounded=1;startArrow=none;endArrow=none;strokeWidth=5;" parent="1" source="258" target="275" edge="1">
                    <mxGeometry relative="1" as="geometry">
                        <mxPoint x="1558.6000000000004" y="-859.5" as="sourcePoint"/>
                        <mxPoint x="1558.6000000000004" y="-685.5" as="targetPoint"/>
                    </mxGeometry>
                </mxCell>
                <mxCell id="273" style="edgeStyle=none;html=1;exitX=0.5;exitY=1;exitDx=0;exitDy=0;exitPerimeter=0;entryX=0.5;entryY=0;entryDx=0;entryDy=0;entryPerimeter=0;fontSize=30;strokeWidth=5;" parent="1" source="275" target="253" edge="1">
                    <mxGeometry relative="1" as="geometry"/>
                </mxCell>
                <mxCell id="274" style="edgeStyle=none;html=1;exitX=0.985;exitY=0.985;exitDx=0;exitDy=0;exitPerimeter=0;entryX=0.5;entryY=0;entryDx=0;entryDy=0;entryPerimeter=0;strokeWidth=5;fontSize=30;" parent="1" source="275" target="284" edge="1">
                    <mxGeometry relative="1" as="geometry"/>
                </mxCell>
                <mxCell id="275" value="" style="points=[[0.015,0.015,0],[0.985,0.015,0],[0.985,0.985,0],[0.015,0.985,0],[0.25,0,0],[0.5,0,0],[0.75,0,0],[1,0.25,0],[1,0.5,0],[1,0.75,0],[0.75,1,0],[0.5,1,0],[0.25,1,0],[0,0.75,0],[0,0.5,0],[0,0.25,0]];verticalLabelPosition=bottom;html=1;verticalAlign=top;aspect=fixed;align=center;pointerEvents=1;shape=mxgraph.cisco19.rect;prIcon=workgroup_switch;fillColor=#FAFAFA;strokeColor=#6696AB;rounded=1;" parent="1" vertex="1">
                    <mxGeometry x="1530.6000000000004" y="-868.5" width="60" height="60" as="geometry"/>
                </mxCell>
                <mxCell id="276" value="Location&amp;nbsp; 2" style="text;html=1;align=center;verticalAlign=middle;resizable=0;points=[];autosize=1;strokeColor=none;fillColor=none;fontSize=50;fontStyle=1" parent="1" vertex="1">
                    <mxGeometry x="1929.3500000000001" y="-1296" width="288" height="78" as="geometry"/>
                </mxCell>
                <mxCell id="277" value="" style="shape=mxgraph.cisco.misc.access_point;html=1;pointerEvents=1;dashed=0;fillColor=#036897;strokeColor=#ffffff;strokeWidth=2;verticalLabelPosition=bottom;verticalAlign=top;align=center;outlineConnect=0;rounded=1;" parent="1" vertex="1">
                    <mxGeometry x="1945.6500000000003" y="-502.79999999999995" width="75" height="34" as="geometry"/>
                </mxCell>
                <mxCell id="278" value="" style="html=1;verticalLabelPosition=bottom;align=center;labelBackgroundColor=#ffffff;verticalAlign=top;strokeWidth=2;strokeColor=#0080F0;shadow=0;dashed=0;shape=mxgraph.ios7.icons.smartphone;rounded=1;" parent="1" vertex="1">
                    <mxGeometry x="1965.8500000000001" y="-613.65" width="18" height="30" as="geometry"/>
                </mxCell>
                <mxCell id="279" style="edgeStyle=none;html=1;exitX=1;exitY=0.5;exitDx=0;exitDy=0;exitPerimeter=0;rounded=1;" parent="1" source="280" target="281" edge="1">
                    <mxGeometry relative="1" as="geometry"/>
                </mxCell>
                <mxCell id="280" value="" style="fontColor=#0066CC;verticalAlign=top;verticalLabelPosition=bottom;labelPosition=center;align=center;html=1;outlineConnect=0;fillColor=#CCCCCC;strokeColor=#6881B3;gradientColor=none;gradientDirection=north;strokeWidth=2;shape=mxgraph.networks.phone_2;rounded=1;" parent="1" vertex="1">
                    <mxGeometry x="1718.7000000000005" y="-373.5" width="40" height="36" as="geometry"/>
                </mxCell>
                <mxCell id="281" value="" style="verticalLabelPosition=bottom;aspect=fixed;html=1;verticalAlign=top;strokeColor=none;align=center;outlineConnect=0;shape=mxgraph.citrix.desktop;rounded=1;" parent="1" vertex="1">
                    <mxGeometry x="1620.9000000000003" y="-383.5" width="50.86" height="56" as="geometry"/>
                </mxCell>
                <mxCell id="282" style="edgeStyle=none;html=1;exitX=0.015;exitY=0.015;exitDx=0;exitDy=0;exitPerimeter=0;entryX=0.92;entryY=0.8;entryDx=0;entryDy=0;entryPerimeter=0;fontFamily=Garamond;fontSize=22;fontColor=#f1e9e9;endArrow=classic;endFill=1;rounded=1;strokeWidth=5;" parent="1" source="284" target="277" edge="1">
                    <mxGeometry relative="1" as="geometry"/>
                </mxCell>
                <mxCell id="283" style="edgeStyle=none;html=1;exitX=0.5;exitY=1;exitDx=0;exitDy=0;exitPerimeter=0;strokeWidth=5;fontSize=30;" parent="1" source="284" target="281" edge="1">
                    <mxGeometry relative="1" as="geometry">
                        <mxPoint x="1827.8" y="-370.5" as="targetPoint"/>
                    </mxGeometry>
                </mxCell>
                <mxCell id="284" value="" style="points=[[0.015,0.015,0],[0.985,0.015,0],[0.985,0.985,0],[0.015,0.985,0],[0.25,0,0],[0.5,0,0],[0.75,0,0],[1,0.25,0],[1,0.5,0],[1,0.75,0],[0.75,1,0],[0.5,1,0],[0.25,1,0],[0,0.75,0],[0,0.5,0],[0,0.25,0]];verticalLabelPosition=bottom;html=1;verticalAlign=top;aspect=fixed;align=center;pointerEvents=1;shape=mxgraph.cisco19.rect;prIcon=workgroup_switch;fillColor=#FAFAFA;strokeColor=#6696AB;rounded=1;" parent="1" vertex="1">
                    <mxGeometry x="1614.6000000000008" y="-706.5" width="60" height="60" as="geometry"/>
                </mxCell>
                <mxCell id="285" value="" style="html=1;verticalLabelPosition=bottom;align=center;labelBackgroundColor=#ffffff;verticalAlign=top;strokeWidth=2;strokeColor=#0080F0;shadow=0;dashed=0;shape=mxgraph.ios7.icons.wifi;pointerEvents=1;direction=east;rounded=1;" parent="1" vertex="1">
                    <mxGeometry x="1950.9500000000005" y="-561.6500000000001" width="69.7" height="41" as="geometry"/>
                </mxCell>
                <mxCell id="286" value="Desktops" style="text;html=1;align=center;verticalAlign=middle;resizable=0;points=[];autosize=1;strokeColor=none;fillColor=none;fontSize=22;fontFamily=Garamond;fontColor=#f1e9e9;fontStyle=1;rounded=1;" parent="1" vertex="1">
                    <mxGeometry x="1575.8000000000002" y="-315.49999999999994" width="120" height="36" as="geometry"/>
                </mxCell>
                <mxCell id="287" value="Laptops" style="text;html=1;align=center;verticalAlign=middle;resizable=0;points=[];autosize=1;strokeColor=none;fillColor=none;fontSize=22;" parent="1" vertex="1">
                    <mxGeometry x="2088.8500000000004" y="-462.15" width="102" height="42" as="geometry"/>
                </mxCell>
                <mxCell id="288" value="Mobiles" style="text;html=1;align=center;verticalAlign=middle;resizable=0;points=[];autosize=1;strokeColor=none;fillColor=none;fontSize=22;" parent="1" vertex="1">
                    <mxGeometry x="1923.8500000000001" y="-660.15" width="102" height="42" as="geometry"/>
                </mxCell>
                <mxCell id="289" value="" style="shape=mxgraph.cisco.misc.access_point;html=1;pointerEvents=1;dashed=0;fillColor=#036897;strokeColor=#ffffff;strokeWidth=2;verticalLabelPosition=bottom;verticalAlign=top;align=center;outlineConnect=0;rounded=1;" parent="1" vertex="1">
                    <mxGeometry x="1945.6500000000003" y="-502.79999999999995" width="75" height="34" as="geometry"/>
                </mxCell>
                <mxCell id="290" value="" style="pointerEvents=1;shadow=0;dashed=0;html=1;strokeColor=none;fillColor=#4495D1;labelPosition=center;verticalLabelPosition=bottom;verticalAlign=top;align=center;outlineConnect=0;shape=mxgraph.veeam.laptop;rounded=1;" parent="1" vertex="1">
                    <mxGeometry x="2100.8500000000004" y="-513.3" width="58.4" height="44" as="geometry"/>
                </mxCell>
                <mxCell id="291" value="" style="html=1;verticalLabelPosition=bottom;align=center;labelBackgroundColor=#ffffff;verticalAlign=top;strokeWidth=2;strokeColor=#0080F0;shadow=0;dashed=0;shape=mxgraph.ios7.icons.smartphone;rounded=1;" parent="1" vertex="1">
                    <mxGeometry x="1965.8500000000001" y="-613.65" width="18" height="30" as="geometry"/>
                </mxCell>
                <mxCell id="292" style="edgeStyle=none;html=1;exitX=1;exitY=0.5;exitDx=0;exitDy=0;exitPerimeter=0;rounded=1;strokeWidth=5;" parent="1" source="293" edge="1">
                    <mxGeometry relative="1" as="geometry">
                        <mxPoint x="1671.76" y="-355.5" as="targetPoint"/>
                    </mxGeometry>
                </mxCell>
                <mxCell id="293" value="" style="fontColor=#0066CC;verticalAlign=top;verticalLabelPosition=bottom;labelPosition=center;align=center;html=1;outlineConnect=0;fillColor=#CCCCCC;strokeColor=#6881B3;gradientColor=none;gradientDirection=north;strokeWidth=2;shape=mxgraph.networks.phone_2;rounded=1;" parent="1" vertex="1">
                    <mxGeometry x="1718.7000000000005" y="-373.5" width="40" height="36" as="geometry"/>
                </mxCell>
                <mxCell id="294" value="" style="edgeStyle=none;html=1;strokeWidth=5;fontSize=30;" parent="1" source="295" target="290" edge="1">
                    <mxGeometry relative="1" as="geometry"/>
                </mxCell>
                <mxCell id="295" value="" style="html=1;verticalLabelPosition=bottom;align=center;labelBackgroundColor=#ffffff;verticalAlign=top;strokeWidth=2;strokeColor=#0080F0;shadow=0;dashed=0;shape=mxgraph.ios7.icons.wifi;pointerEvents=1;direction=south;rounded=1;" parent="1" vertex="1">
                    <mxGeometry x="2052.8500000000004" y="-516.15" width="41" height="69.7" as="geometry"/>
                </mxCell>
                <mxCell id="296" value="" style="html=1;verticalLabelPosition=bottom;align=center;labelBackgroundColor=#ffffff;verticalAlign=top;strokeWidth=2;strokeColor=#0080F0;shadow=0;dashed=0;shape=mxgraph.ios7.icons.wifi;pointerEvents=1;direction=east;rounded=1;" parent="1" vertex="1">
                    <mxGeometry x="1950.9500000000005" y="-561.65" width="69.7" height="44" as="geometry"/>
                </mxCell>
                <mxCell id="298" value="DeskPhones" style="text;html=1;align=center;verticalAlign=middle;resizable=0;points=[];autosize=1;strokeColor=none;fillColor=none;fontSize=22;fontFamily=Garamond;fontColor=#f1e9e9;fontStyle=1;rounded=1;" parent="1" vertex="1">
                    <mxGeometry x="1684.5999999999995" y="-315.5000000000001" width="144" height="36" as="geometry"/>
                </mxCell>
                <mxCell id="299" value="" style="rounded=0;whiteSpace=wrap;html=1;" parent="1" vertex="1">
                    <mxGeometry x="2484" y="-1200" width="1506" height="1062" as="geometry"/>
                </mxCell>
                <mxCell id="363" style="edgeStyle=elbowEdgeStyle;shape=link;html=1;exitX=0.5;exitY=0;exitDx=0;exitDy=0;exitPerimeter=0;entryX=0.75;entryY=0;entryDx=0;entryDy=0;strokeWidth=5;fontSize=40;" parent="1" source="300" target="20" edge="1">
                    <mxGeometry relative="1" as="geometry">
                        <Array as="points">
                            <mxPoint x="2646" y="-1428"/>
                        </Array>
                    </mxGeometry>
                </mxCell>
                <mxCell id="300" value="" style="points=[[0.015,0.015,0],[0.985,0.015,0],[0.985,0.985,0],[0.015,0.985,0],[0.25,0,0],[0.5,0,0],[0.75,0,0],[1,0.25,0],[1,0.5,0],[1,0.75,0],[0.75,1,0],[0.5,1,0],[0.25,1,0],[0,0.75,0],[0,0.5,0],[0,0.25,0]];verticalLabelPosition=bottom;html=1;verticalAlign=top;aspect=fixed;align=center;pointerEvents=1;shape=mxgraph.cisco19.rect;prIcon=firewall;fillColor=#FAFAFA;strokeColor=#005073;rounded=1;" parent="1" vertex="1">
                    <mxGeometry x="3240.8" y="-1170" width="64" height="50" as="geometry"/>
                </mxCell>
                <mxCell id="301" value="" style="shape=mxgraph.cisco.misc.access_point;html=1;pointerEvents=1;dashed=0;fillColor=#036897;strokeColor=#ffffff;strokeWidth=2;verticalLabelPosition=bottom;verticalAlign=top;align=center;outlineConnect=0;rounded=1;" parent="1" vertex="1">
                    <mxGeometry x="2632.6000000000004" y="-591.15" width="75" height="34" as="geometry"/>
                </mxCell>
                <mxCell id="302" value="" style="pointerEvents=1;shadow=0;dashed=0;html=1;strokeColor=none;fillColor=#4495D1;labelPosition=center;verticalLabelPosition=bottom;verticalAlign=top;align=center;outlineConnect=0;shape=mxgraph.veeam.laptop;rounded=1;" parent="1" vertex="1">
                    <mxGeometry x="2496" y="-601.15" width="58.4" height="44" as="geometry"/>
                </mxCell>
                <mxCell id="303" value="" style="html=1;verticalLabelPosition=bottom;align=center;labelBackgroundColor=#ffffff;verticalAlign=top;strokeWidth=2;strokeColor=#0080F0;shadow=0;dashed=0;shape=mxgraph.ios7.icons.smartphone;rounded=1;" parent="1" vertex="1">
                    <mxGeometry x="2652.8" y="-702" width="18" height="30" as="geometry"/>
                </mxCell>
                <mxCell id="304" style="edgeStyle=none;html=1;exitX=1;exitY=0.5;exitDx=0;exitDy=0;exitPerimeter=0;rounded=1;" parent="1" source="305" target="306" edge="1">
                    <mxGeometry relative="1" as="geometry"/>
                </mxCell>
                <mxCell id="305" value="" style="fontColor=#0066CC;verticalAlign=top;verticalLabelPosition=bottom;labelPosition=center;align=center;html=1;outlineConnect=0;fillColor=#CCCCCC;strokeColor=#6881B3;gradientColor=none;gradientDirection=north;strokeWidth=2;shape=mxgraph.networks.phone_2;rounded=1;" parent="1" vertex="1">
                    <mxGeometry x="3030.7999999999997" y="-389" width="40" height="36" as="geometry"/>
                </mxCell>
                <mxCell id="306" value="" style="verticalLabelPosition=bottom;aspect=fixed;html=1;verticalAlign=top;strokeColor=none;align=center;outlineConnect=0;shape=mxgraph.citrix.desktop;rounded=1;" parent="1" vertex="1">
                    <mxGeometry x="2933" y="-399" width="50.86" height="56" as="geometry"/>
                </mxCell>
                <mxCell id="307" style="edgeStyle=none;html=1;exitX=0.015;exitY=0.015;exitDx=0;exitDy=0;exitPerimeter=0;entryX=0.92;entryY=0.8;entryDx=0;entryDy=0;entryPerimeter=0;fontFamily=Garamond;fontSize=22;fontColor=#f1e9e9;endArrow=classic;endFill=1;rounded=1;strokeWidth=5;" parent="1" source="309" target="301" edge="1">
                    <mxGeometry relative="1" as="geometry"/>
                </mxCell>
                <mxCell id="308" style="edgeStyle=none;html=1;exitX=0.5;exitY=1;exitDx=0;exitDy=0;exitPerimeter=0;fontSize=30;strokeWidth=5;" parent="1" source="309" edge="1">
                    <mxGeometry relative="1" as="geometry">
                        <mxPoint x="3034.7" y="-393" as="targetPoint"/>
                    </mxGeometry>
                </mxCell>
                <mxCell id="309" value="" style="points=[[0.015,0.015,0],[0.985,0.015,0],[0.985,0.985,0],[0.015,0.985,0],[0.25,0,0],[0.5,0,0],[0.75,0,0],[1,0.25,0],[1,0.5,0],[1,0.75,0],[0.75,1,0],[0.5,1,0],[0.25,1,0],[0,0.75,0],[0,0.5,0],[0,0.25,0]];verticalLabelPosition=bottom;html=1;verticalAlign=top;aspect=fixed;align=center;pointerEvents=1;shape=mxgraph.cisco19.rect;prIcon=workgroup_switch;fillColor=#FAFAFA;strokeColor=#6696AB;rounded=1;" parent="1" vertex="1">
                    <mxGeometry x="3005" y="-663" width="60" height="60" as="geometry"/>
                </mxCell>
                <mxCell id="310" value="" style="html=1;verticalLabelPosition=bottom;align=center;labelBackgroundColor=#ffffff;verticalAlign=top;strokeWidth=2;strokeColor=#0080F0;shadow=0;dashed=0;shape=mxgraph.ios7.icons.wifi;pointerEvents=1;direction=north;rounded=1;" parent="1" vertex="1">
                    <mxGeometry x="2571.8" y="-609" width="41" height="69.7" as="geometry"/>
                </mxCell>
                <mxCell id="311" value="" style="html=1;verticalLabelPosition=bottom;align=center;labelBackgroundColor=#ffffff;verticalAlign=top;strokeWidth=2;strokeColor=#0080F0;shadow=0;dashed=0;shape=mxgraph.ios7.icons.wifi;pointerEvents=1;direction=east;rounded=1;" parent="1" vertex="1">
                    <mxGeometry x="2637.8999999999996" y="-650.0000000000001" width="69.7" height="41" as="geometry"/>
                </mxCell>
                <mxCell id="312" value="Desktops" style="text;html=1;align=center;verticalAlign=middle;resizable=0;points=[];autosize=1;strokeColor=none;fillColor=none;fontSize=22;fontFamily=Garamond;fontColor=#f1e9e9;fontStyle=1;rounded=1;" parent="1" vertex="1">
                    <mxGeometry x="2846.2" y="-358.29999999999995" width="120" height="36" as="geometry"/>
                </mxCell>
                <mxCell id="313" value="" style="edgeStyle=none;html=1;exitX=0.5;exitY=1;exitDx=0;exitDy=0;exitPerimeter=0;entryX=0.5;entryY=0;entryDx=0;entryDy=0;entryPerimeter=0;fontFamily=Garamond;fontSize=19;fontColor=#000000;rounded=1;endArrow=none;strokeWidth=5;" parent="1" source="300" target="314" edge="1">
                    <mxGeometry relative="1" as="geometry">
                        <mxPoint x="3270.8" y="-823" as="sourcePoint"/>
                        <mxPoint x="3270.8" y="-717" as="targetPoint"/>
                    </mxGeometry>
                </mxCell>
                <mxCell id="314" value="FIrewall" style="text;html=1;align=center;verticalAlign=middle;resizable=0;points=[];autosize=1;strokeColor=none;fillColor=none;fontSize=22;rounded=1;" parent="1" vertex="1">
                    <mxGeometry x="3218.8" y="-1056" width="108" height="36" as="geometry"/>
                </mxCell>
                <mxCell id="315" value="Laptops" style="text;html=1;align=center;verticalAlign=middle;resizable=0;points=[];autosize=1;strokeColor=none;fillColor=none;fontSize=22;" parent="1" vertex="1">
                    <mxGeometry x="2707.6" y="-541.15" width="102" height="42" as="geometry"/>
                </mxCell>
                <mxCell id="316" value="Mobiles" style="text;html=1;align=center;verticalAlign=middle;resizable=0;points=[];autosize=1;strokeColor=none;fillColor=none;fontSize=22;" parent="1" vertex="1">
                    <mxGeometry x="2610" y="-738" width="102" height="42" as="geometry"/>
                </mxCell>
                <mxCell id="317" value="" style="shape=mxgraph.cisco.misc.access_point;html=1;pointerEvents=1;dashed=0;fillColor=#036897;strokeColor=#ffffff;strokeWidth=2;verticalLabelPosition=bottom;verticalAlign=top;align=center;outlineConnect=0;rounded=1;" parent="1" vertex="1">
                    <mxGeometry x="2632.6000000000004" y="-591.15" width="75" height="34" as="geometry"/>
                </mxCell>
                <mxCell id="318" value="" style="pointerEvents=1;shadow=0;dashed=0;html=1;strokeColor=none;fillColor=#4495D1;labelPosition=center;verticalLabelPosition=bottom;verticalAlign=top;align=center;outlineConnect=0;shape=mxgraph.veeam.laptop;rounded=1;" parent="1" vertex="1">
                    <mxGeometry x="2496" y="-601.15" width="58.4" height="44" as="geometry"/>
                </mxCell>
                <mxCell id="319" value="" style="html=1;verticalLabelPosition=bottom;align=center;labelBackgroundColor=#ffffff;verticalAlign=top;strokeWidth=2;strokeColor=#0080F0;shadow=0;dashed=0;shape=mxgraph.ios7.icons.smartphone;rounded=1;" parent="1" vertex="1">
                    <mxGeometry x="2652.8" y="-702" width="18" height="30" as="geometry"/>
                </mxCell>
                <mxCell id="320" style="edgeStyle=none;html=1;exitX=1;exitY=0.5;exitDx=0;exitDy=0;exitPerimeter=0;rounded=1;strokeWidth=5;" parent="1" source="321" edge="1">
                    <mxGeometry relative="1" as="geometry">
                        <mxPoint x="2983.8599999999997" y="-371" as="targetPoint"/>
                    </mxGeometry>
                </mxCell>
                <mxCell id="321" value="" style="fontColor=#0066CC;verticalAlign=top;verticalLabelPosition=bottom;labelPosition=center;align=center;html=1;outlineConnect=0;fillColor=#CCCCCC;strokeColor=#6881B3;gradientColor=none;gradientDirection=north;strokeWidth=2;shape=mxgraph.networks.phone_2;rounded=1;" parent="1" vertex="1">
                    <mxGeometry x="3030.7999999999997" y="-389" width="40" height="36" as="geometry"/>
                </mxCell>
                <mxCell id="322" value="Core Switch" style="text;html=1;align=center;verticalAlign=middle;resizable=0;points=[];autosize=1;strokeColor=none;fillColor=none;fontStyle=1;strokeWidth=17;fontFamily=Garamond;fontSize=26;rounded=1;" parent="1" vertex="1">
                    <mxGeometry x="3308.6" y="-887.5" width="156" height="48" as="geometry"/>
                </mxCell>
                <mxCell id="323" value="" style="html=1;verticalLabelPosition=bottom;align=center;labelBackgroundColor=#ffffff;verticalAlign=top;strokeWidth=2;strokeColor=#0080F0;shadow=0;dashed=0;shape=mxgraph.ios7.icons.wifi;pointerEvents=1;direction=north;rounded=1;" parent="1" vertex="1">
                    <mxGeometry x="2571.8" y="-609" width="41" height="69.7" as="geometry"/>
                </mxCell>
                <mxCell id="324" value="" style="html=1;verticalLabelPosition=bottom;align=center;labelBackgroundColor=#ffffff;verticalAlign=top;strokeWidth=2;strokeColor=#0080F0;shadow=0;dashed=0;shape=mxgraph.ios7.icons.wifi;pointerEvents=1;direction=east;rounded=1;" parent="1" vertex="1">
                    <mxGeometry x="2637.8999999999996" y="-650.0000000000001" width="69.7" height="41" as="geometry"/>
                </mxCell>
                <mxCell id="325" style="edgeStyle=none;html=1;exitX=0.5;exitY=0;exitDx=0;exitDy=0;exitPerimeter=0;entryX=0.75;entryY=0;entryDx=0;entryDy=0;entryPerimeter=0;fontFamily=Garamond;fontSize=19;fontColor=#000000;rounded=1;" parent="1" source="331" target="331" edge="1">
                    <mxGeometry relative="1" as="geometry"/>
                </mxCell>
                <mxCell id="326" value="Access Switch" style="text;html=1;align=center;verticalAlign=middle;resizable=0;points=[];autosize=1;strokeColor=none;fillColor=none;fontStyle=1;strokeWidth=17;fontFamily=Garamond;fontSize=26;rounded=1;" parent="1" vertex="1">
                    <mxGeometry x="3074.2" y="-657" width="180" height="48" as="geometry"/>
                </mxCell>
                <mxCell id="327" value="DeskPhones" style="text;html=1;align=center;verticalAlign=middle;resizable=0;points=[];autosize=1;strokeColor=none;fillColor=none;fontSize=22;fontFamily=Garamond;fontColor=#f1e9e9;fontStyle=1;rounded=1;" parent="1" vertex="1">
                    <mxGeometry x="3038.2" y="-347" width="144" height="36" as="geometry"/>
                </mxCell>
                <mxCell id="328" value="" style="edgeStyle=none;html=1;exitX=0.5;exitY=1;exitDx=0;exitDy=0;exitPerimeter=0;entryX=0.5;entryY=0;entryDx=0;entryDy=0;entryPerimeter=0;fontFamily=Garamond;fontSize=19;fontColor=#000000;rounded=1;startArrow=none;endArrow=none;strokeWidth=5;" parent="1" source="314" target="331" edge="1">
                    <mxGeometry relative="1" as="geometry">
                        <mxPoint x="3270.8" y="-891" as="sourcePoint"/>
                        <mxPoint x="3270.8" y="-717" as="targetPoint"/>
                    </mxGeometry>
                </mxCell>
                <mxCell id="329" style="edgeStyle=none;html=1;exitX=0.5;exitY=1;exitDx=0;exitDy=0;exitPerimeter=0;entryX=0.5;entryY=0;entryDx=0;entryDy=0;entryPerimeter=0;fontSize=30;strokeWidth=5;" parent="1" source="331" target="309" edge="1">
                    <mxGeometry relative="1" as="geometry"/>
                </mxCell>
                <mxCell id="330" style="edgeStyle=none;html=1;exitX=0.985;exitY=0.985;exitDx=0;exitDy=0;exitPerimeter=0;entryX=0.5;entryY=0;entryDx=0;entryDy=0;entryPerimeter=0;strokeWidth=5;fontSize=30;" parent="1" source="331" target="340" edge="1">
                    <mxGeometry relative="1" as="geometry"/>
                </mxCell>
                <mxCell id="331" value="" style="points=[[0.015,0.015,0],[0.985,0.015,0],[0.985,0.985,0],[0.015,0.985,0],[0.25,0,0],[0.5,0,0],[0.75,0,0],[1,0.25,0],[1,0.5,0],[1,0.75,0],[0.75,1,0],[0.5,1,0],[0.25,1,0],[0,0.75,0],[0,0.5,0],[0,0.25,0]];verticalLabelPosition=bottom;html=1;verticalAlign=top;aspect=fixed;align=center;pointerEvents=1;shape=mxgraph.cisco19.rect;prIcon=workgroup_switch;fillColor=#FAFAFA;strokeColor=#6696AB;rounded=1;" parent="1" vertex="1">
                    <mxGeometry x="3242.8" y="-900" width="60" height="60" as="geometry"/>
                </mxCell>
                <mxCell id="332" value="Location&amp;nbsp; 4" style="text;html=1;align=center;verticalAlign=middle;resizable=0;points=[];autosize=1;strokeColor=none;fillColor=none;fontSize=50;fontStyle=1" parent="1" vertex="1">
                    <mxGeometry x="3714.8" y="-1284" width="288" height="78" as="geometry"/>
                </mxCell>
                <mxCell id="333" value="" style="shape=mxgraph.cisco.misc.access_point;html=1;pointerEvents=1;dashed=0;fillColor=#036897;strokeColor=#ffffff;strokeWidth=2;verticalLabelPosition=bottom;verticalAlign=top;align=center;outlineConnect=0;rounded=1;" parent="1" vertex="1">
                    <mxGeometry x="3714.8" y="-532.65" width="75" height="34" as="geometry"/>
                </mxCell>
                <mxCell id="334" value="" style="html=1;verticalLabelPosition=bottom;align=center;labelBackgroundColor=#ffffff;verticalAlign=top;strokeWidth=2;strokeColor=#0080F0;shadow=0;dashed=0;shape=mxgraph.ios7.icons.smartphone;rounded=1;" parent="1" vertex="1">
                    <mxGeometry x="3735" y="-643.5" width="18" height="30" as="geometry"/>
                </mxCell>
                <mxCell id="335" style="edgeStyle=none;html=1;exitX=1;exitY=0.5;exitDx=0;exitDy=0;exitPerimeter=0;rounded=1;" parent="1" source="336" target="337" edge="1">
                    <mxGeometry relative="1" as="geometry"/>
                </mxCell>
                <mxCell id="336" value="" style="fontColor=#0066CC;verticalAlign=top;verticalLabelPosition=bottom;labelPosition=center;align=center;html=1;outlineConnect=0;fillColor=#CCCCCC;strokeColor=#6881B3;gradientColor=none;gradientDirection=north;strokeWidth=2;shape=mxgraph.networks.phone_2;rounded=1;" parent="1" vertex="1">
                    <mxGeometry x="3526.6" y="-407" width="40" height="36" as="geometry"/>
                </mxCell>
                <mxCell id="337" value="" style="verticalLabelPosition=bottom;aspect=fixed;html=1;verticalAlign=top;strokeColor=none;align=center;outlineConnect=0;shape=mxgraph.citrix.desktop;rounded=1;" parent="1" vertex="1">
                    <mxGeometry x="3428.8" y="-417" width="50.86" height="56" as="geometry"/>
                </mxCell>
                <mxCell id="338" style="edgeStyle=none;html=1;exitX=0.015;exitY=0.015;exitDx=0;exitDy=0;exitPerimeter=0;entryX=0.92;entryY=0.8;entryDx=0;entryDy=0;entryPerimeter=0;fontFamily=Garamond;fontSize=22;fontColor=#f1e9e9;endArrow=classic;endFill=1;rounded=1;strokeWidth=5;" parent="1" source="340" target="333" edge="1">
                    <mxGeometry relative="1" as="geometry"/>
                </mxCell>
                <mxCell id="339" style="edgeStyle=none;html=1;exitX=0.5;exitY=1;exitDx=0;exitDy=0;exitPerimeter=0;strokeWidth=5;fontSize=30;" parent="1" source="340" edge="1">
                    <mxGeometry relative="1" as="geometry">
                        <mxPoint x="3540" y="-402" as="targetPoint"/>
                    </mxGeometry>
                </mxCell>
                <mxCell id="340" value="" style="points=[[0.015,0.015,0],[0.985,0.015,0],[0.985,0.985,0],[0.015,0.985,0],[0.25,0,0],[0.5,0,0],[0.75,0,0],[1,0.25,0],[1,0.5,0],[1,0.75,0],[0.75,1,0],[0.5,1,0],[0.25,1,0],[0,0.75,0],[0,0.5,0],[0,0.25,0]];verticalLabelPosition=bottom;html=1;verticalAlign=top;aspect=fixed;align=center;pointerEvents=1;shape=mxgraph.cisco19.rect;prIcon=workgroup_switch;fillColor=#FAFAFA;strokeColor=#6696AB;rounded=1;" parent="1" vertex="1">
                    <mxGeometry x="3326.8000000000006" y="-738" width="60" height="60" as="geometry"/>
                </mxCell>
                <mxCell id="341" value="" style="html=1;verticalLabelPosition=bottom;align=center;labelBackgroundColor=#ffffff;verticalAlign=top;strokeWidth=2;strokeColor=#0080F0;shadow=0;dashed=0;shape=mxgraph.ios7.icons.wifi;pointerEvents=1;direction=east;rounded=1;" parent="1" vertex="1">
                    <mxGeometry x="3720.1" y="-591.5000000000001" width="69.7" height="41" as="geometry"/>
                </mxCell>
                <mxCell id="342" value="Desktops" style="text;html=1;align=center;verticalAlign=middle;resizable=0;points=[];autosize=1;strokeColor=none;fillColor=none;fontSize=22;fontFamily=Garamond;fontColor=#f1e9e9;fontStyle=1;rounded=1;" parent="1" vertex="1">
                    <mxGeometry x="3342" y="-376.29999999999995" width="120" height="36" as="geometry"/>
                </mxCell>
                <mxCell id="343" value="Laptops" style="text;html=1;align=center;verticalAlign=middle;resizable=0;points=[];autosize=1;strokeColor=none;fillColor=none;fontSize=22;" parent="1" vertex="1">
                    <mxGeometry x="3858" y="-492" width="102" height="42" as="geometry"/>
                </mxCell>
                <mxCell id="344" value="Mobiles" style="text;html=1;align=center;verticalAlign=middle;resizable=0;points=[];autosize=1;strokeColor=none;fillColor=none;fontSize=22;" parent="1" vertex="1">
                    <mxGeometry x="3693" y="-690" width="102" height="42" as="geometry"/>
                </mxCell>
                <mxCell id="345" value="" style="shape=mxgraph.cisco.misc.access_point;html=1;pointerEvents=1;dashed=0;fillColor=#036897;strokeColor=#ffffff;strokeWidth=2;verticalLabelPosition=bottom;verticalAlign=top;align=center;outlineConnect=0;rounded=1;" parent="1" vertex="1">
                    <mxGeometry x="3714.8" y="-532.65" width="75" height="34" as="geometry"/>
                </mxCell>
                <mxCell id="346" value="" style="pointerEvents=1;shadow=0;dashed=0;html=1;strokeColor=none;fillColor=#4495D1;labelPosition=center;verticalLabelPosition=bottom;verticalAlign=top;align=center;outlineConnect=0;shape=mxgraph.veeam.laptop;rounded=1;" parent="1" vertex="1">
                    <mxGeometry x="3870" y="-543.15" width="58.4" height="44" as="geometry"/>
                </mxCell>
                <mxCell id="347" value="" style="html=1;verticalLabelPosition=bottom;align=center;labelBackgroundColor=#ffffff;verticalAlign=top;strokeWidth=2;strokeColor=#0080F0;shadow=0;dashed=0;shape=mxgraph.ios7.icons.smartphone;rounded=1;" parent="1" vertex="1">
                    <mxGeometry x="3735" y="-643.5" width="18" height="30" as="geometry"/>
                </mxCell>
                <mxCell id="348" style="edgeStyle=none;html=1;exitX=1;exitY=0.5;exitDx=0;exitDy=0;exitPerimeter=0;rounded=1;strokeWidth=5;" parent="1" source="349" edge="1">
                    <mxGeometry relative="1" as="geometry">
                        <mxPoint x="3479.66" y="-389" as="targetPoint"/>
                    </mxGeometry>
                </mxCell>
                <mxCell id="349" value="" style="fontColor=#0066CC;verticalAlign=top;verticalLabelPosition=bottom;labelPosition=center;align=center;html=1;outlineConnect=0;fillColor=#CCCCCC;strokeColor=#6881B3;gradientColor=none;gradientDirection=north;strokeWidth=2;shape=mxgraph.networks.phone_2;rounded=1;" parent="1" vertex="1">
                    <mxGeometry x="3526.6" y="-407" width="40" height="36" as="geometry"/>
                </mxCell>
                <mxCell id="350" value="" style="edgeStyle=none;html=1;strokeWidth=5;fontSize=30;" parent="1" source="351" target="346" edge="1">
                    <mxGeometry relative="1" as="geometry"/>
                </mxCell>
                <mxCell id="351" value="" style="html=1;verticalLabelPosition=bottom;align=center;labelBackgroundColor=#ffffff;verticalAlign=top;strokeWidth=2;strokeColor=#0080F0;shadow=0;dashed=0;shape=mxgraph.ios7.icons.wifi;pointerEvents=1;direction=south;rounded=1;" parent="1" vertex="1">
                    <mxGeometry x="3822" y="-546" width="41" height="69.7" as="geometry"/>
                </mxCell>
                <mxCell id="352" value="" style="html=1;verticalLabelPosition=bottom;align=center;labelBackgroundColor=#ffffff;verticalAlign=top;strokeWidth=2;strokeColor=#0080F0;shadow=0;dashed=0;shape=mxgraph.ios7.icons.wifi;pointerEvents=1;direction=east;rounded=1;" parent="1" vertex="1">
                    <mxGeometry x="3720.1" y="-591.5" width="69.7" height="44" as="geometry"/>
                </mxCell>
                <mxCell id="353" value="Access Switch" style="text;html=1;align=center;verticalAlign=middle;resizable=0;points=[];autosize=1;strokeColor=none;fillColor=none;fontStyle=1;strokeWidth=17;fontFamily=Garamond;fontSize=26;rounded=1;" parent="1" vertex="1">
                    <mxGeometry x="3474" y="-729" width="180" height="48" as="geometry"/>
                </mxCell>
                <mxCell id="354" value="DeskPhones" style="text;html=1;align=center;verticalAlign=middle;resizable=0;points=[];autosize=1;strokeColor=none;fillColor=none;fontSize=22;fontFamily=Garamond;fontColor=#f1e9e9;fontStyle=1;rounded=1;" parent="1" vertex="1">
                    <mxGeometry x="3500.2999999999997" y="-365.6500000000001" width="144" height="36" as="geometry"/>
                </mxCell>
                <mxCell id="297" value="Access Switch" style="text;html=1;align=center;verticalAlign=middle;resizable=0;points=[];autosize=1;strokeColor=none;fillColor=none;fontStyle=1;strokeWidth=17;fontFamily=Garamond;fontSize=26;rounded=1;" parent="1" vertex="1">
                    <mxGeometry x="1662" y="-712.5" width="180" height="48" as="geometry"/>
                </mxCell>
                <mxCell id="364" value="ELAN and Internet" style="text;html=1;align=center;verticalAlign=middle;resizable=0;points=[];autosize=1;strokeColor=none;fillColor=none;fontSize=40;" parent="1" vertex="1">
                    <mxGeometry x="1656" y="-1506" width="354" height="66" as="geometry"/>
                </mxCell>
                <mxCell id="365" value="ELAN and Internet" style="text;html=1;align=center;verticalAlign=middle;resizable=0;points=[];autosize=1;strokeColor=none;fillColor=none;fontSize=40;" parent="1" vertex="1">
                    <mxGeometry x="2538" y="-1518" width="354" height="66" as="geometry"/>
                </mxCell>
                <mxCell id="366" value="ELAN and Internet" style="text;html=1;align=center;verticalAlign=middle;resizable=0;points=[];autosize=1;strokeColor=none;fillColor=none;fontSize=40;" parent="1" vertex="1">
                    <mxGeometry x="1638.8" y="-60" width="354" height="66" as="geometry"/>
                </mxCell>
                <mxCell id="367" value="ELAN and Internet" style="text;html=1;align=center;verticalAlign=middle;resizable=0;points=[];autosize=1;strokeColor=none;fillColor=none;fontSize=40;" parent="1" vertex="1">
                    <mxGeometry x="2651" y="-54" width="354" height="66" as="geometry"/>
                </mxCell>
                <mxCell id="368" value="" style="image;html=1;image=img/lib/clip_art/computers/Laptop_128x128.png" parent="1" vertex="1">
                    <mxGeometry x="2252" y="1290" width="140" height="115" as="geometry"/>
                </mxCell>
                <mxCell id="369" value="Remote User" style="text;html=1;align=center;verticalAlign=middle;resizable=0;points=[];autosize=1;strokeColor=none;fillColor=none;fontSize=45;fontStyle=1" parent="1" vertex="1">
                    <mxGeometry x="2159.25" y="1410" width="300" height="72" as="geometry"/>
                </mxCell>
                <mxCell id="372" value="" style="edgeStyle=none;html=1;exitX=0.5;exitY=1;exitDx=0;exitDy=0;entryX=0.988;entryY=0.522;entryDx=0;entryDy=0;fontSize=45;dashed=1;strokeWidth=12;endArrow=none;entryPerimeter=0;" parent="1" source="20" target="371" edge="1">
                    <mxGeometry relative="1" as="geometry">
                        <mxPoint x="2316" y="91.20000000000073" as="sourcePoint"/>
                        <mxPoint x="2326" y="996" as="targetPoint"/>
                    </mxGeometry>
                </mxCell>
                <mxCell id="371" value="SSL-VPN" style="text;html=1;align=center;verticalAlign=middle;resizable=0;points=[];autosize=1;strokeColor=none;fillColor=none;fontSize=45;rotation=270;" parent="1" vertex="1">
                    <mxGeometry x="2214" y="514" width="216" height="72" as="geometry"/>
                </mxCell>
                <mxCell id="376" value="DMZ&amp;nbsp;" style="text;html=1;align=center;verticalAlign=middle;resizable=0;points=[];autosize=1;strokeColor=none;fillColor=none;fontSize=50;" parent="1" vertex="1">
                    <mxGeometry x="1749.05" y="312" width="144" height="78" as="geometry"/>
                </mxCell>
            </root>
        </mxGraphModel>
    </diagram>
</mxfile>